<?xml version="1.0" encoding="utf-8"?>
<!-- Generator: Adobe Illustrator 23.1.1, SVG Export Plug-In . SVG Version: 6.00 Build 0)  -->
<svg version="1.1" id="Layer_1" xmlns="http://www.w3.org/2000/svg" xmlns:xlink="http://www.w3.org/1999/xlink" x="0px" y="0px"
	 viewBox="0 0 100 100" style="enable-background:new 0 0 100 100;" xml:space="preserve">
<style type="text/css">
	.st0{fill:#3C3C3C;}
	.st1{fill:#FDC069;}
</style>
<title>FULLCOLOR</title>
<g>
	<path class="st0" d="M52.6,59.2L41.2,32.1c-2.3,0.9-4.4,2.2-6.3,3.7l-0.4,0.4l9.7,23L52.6,59.2z"/>
	<polygon class="st0" points="64.7,59.2 65.9,49.9 59.6,49 58.3,59.2 	"/>
	<path class="st0" d="M70,59.2c2-5.5,5.1-12.4,7.3-17.5h-4c-2.7,6.6-5.8,14-7.3,17.5H70z"/>
	<path class="st1" d="M78.7,20.9l1.6-2.3c0,0,0.8-0.6,0.6,1c-0.2,1.6-1,3.6,0.8,4c1,0.2,2,0.3,3,0.1c0.5-1.5,1-3.1,1.3-4.7
		c0-1,1.2,1.6,1.2,3.2c0.3,2.1-0.7,4.2-2.6,5.3c-2.6,1.5-6.1-2-6.1-2C77.7,24,77.8,22.3,78.7,20.9z"/>
	<path class="st0" d="M77.9,30.6h4.3c0.4-0.6,0.8-1.2,1.1-1.6c-1.7-0.1-3.3-0.7-4.6-1.8c0.1,0.7,0,1.4-0.2,2.1
		C78.5,29.2,78.2,29.8,77.9,30.6z"/>
	<path class="st0" d="M97.2,32.4h-2.6c0,0.3,0,0.6,0,0.9c0,2.5,0,4.6,0.1,6.5h2.4c1.5,0,2.8-1.2,2.8-2.8c0,0,0,0,0,0v-1.8
		C100,33.7,98.8,32.4,97.2,32.4z"/>
	<path class="st0" d="M2.8,32.4h2.6c0,0.3,0,0.6,0,0.9c0,2.5,0,4.6-0.1,6.5H2.8C1.3,39.8,0,38.5,0,37l0,0v-1.8
		C0,33.7,1.3,32.4,2.8,32.4z"/>
	<path class="st0" d="M32.5,35.3L32.5,35.3c-0.5-0.4-1-0.8-1.4-1.4l-1-1.4h-4.9c-0.4,0.3-0.7,0.7-1.1,1.1c-0.4,0.5-0.9,0.9-1.4,1.2
		L21,35.6l-0.4-0.9l-4.1,1.8l-1.7-3.5l0,0l-0.3-0.5h-3.8c0,0-3.7,0.2-1.9,7.4h25.5L32.5,35.3z"/>
	<path class="st0" d="M58.1,24.5c-1.1,0.7-2.7,0.4-7.7-0.5c-1.9-0.3-4.1-0.8-6.5-1.1c-2.3-0.4-2.9-0.2-2.9-0.4s0.2,0.3,0.2,0.3
		L42,25c2.2-0.8,6.3-0.7,13.6,2.1c0,0,1,1.4,2.9-0.2C58.8,26.1,58.7,25.1,58.1,24.5z"/>
	<path class="st1" d="M54.5,20.7c0,0-13.6-7.1-21.3-3.6l-7.7,3.5c-0.1,0.2-2,4.4-4.9,4.3c-1.3-0.1-2.6,0-3.8,0.3l-2.9,1.5
		c0,0-1,0.3,0.4,2.6c0.3,0.6,0.6,1.1,0.9,1.7l2.7-1.3L17.4,28l1.8-0.7c1-0.4,6-2.6,6.8-2.9c0.5-0.2,1.1-0.2,1.6,0
		c1.8,0.6,4.3,3.4,4.6,3.9c0.4,0.7,0.8,1.4,1.2,2.1c0.5,1,0.1,2.2-1,2.8l0,0c0.4,0.6,0.9,1,1.2,1.1c1.8-1.4,3.8-2.6,5.8-3.6
		c1.1-0.5,1.6-1.7,1.3-2.8l-1.4-4.5c0,0-1.9-3.5,4.9-2.5s12.4,2.4,12.8,1.9C58.1,21.4,54.5,20.7,54.5,20.7z"/>
	<path class="st0" d="M30.5,29.4c-0.3-0.5-3.1-3.3-3.9-3.1c-0.8,0.3-6.7,2.8-6.7,2.8l0.6,1.6l-4.3,2l0.8,1.8l4.2-1.9l0.4,0.9
		c1.1-0.6,3.3-5,8.2-3.1c0.7,0.5,1.3,1.1,1.8,1.9c0.4,0.5,0-0.4-0.5-1.5C31,30.2,30.8,29.8,30.5,29.4z"/>
	<path class="st0" d="M59.8,46.3l6.8,1c0.5,0.1,0.9,0.6,0.8,1.1l0,0c-0.1,0.5-0.6,0.9-1.1,0.8l-6.8-1c-0.5-0.1-0.9-0.6-0.8-1.1v0
		C58.8,46.6,59.3,46.2,59.8,46.3z"/>
	<polygon class="st1" points="66.3,28.9 65.4,28.8 64.6,30.4 62.3,45.5 64.4,45.8 66.6,30.7 	"/>
	<polygon class="st0" points="61.9,39.8 63,32.4 61.2,32.4 43.7,32.4 46.8,39.8 61.2,39.8 	"/>
	<path class="st0" d="M88.3,32.4H67.6l-1.1,7.4h23.6C92,32.6,88.3,32.4,88.3,32.4z"/>
	<path class="st0" d="M90.5,50.4l-4.3-2.3l0.6-7.5l-1.3,0.9c0,0-0.3,5.7-1.6,6.6v5.1l0.8,0.4H74.1c-0.4,0.9-0.8,1.8-1.1,2.8h17.4
		l0.9,0.3v-4.3L90.5,50.4z"/>
	<path class="st1" d="M93.4,33.3c0-4.1-4.6-3.4-4.6-3.4c0.8,0.4,1.5,1,2,1.7c0.9,1.3,1.2,2.5,1.2,5.8s0,12.1,1.2,14.9v4.9H6.3v-4.8
		c1.2-2.9,1.2-11.7,1.2-15c0-3.3,0.3-4.4,1.2-5.8c0.5-0.8,1.2-1.4,2-1.7c0,0-4.7-0.6-4.6,3.4c0.1,16.5-2.5,19-2.5,19v44.6
		c0,3.6,2.6,3.1,2.6,3.1h86.9c0,0,2.6,0.6,2.6-3.1V52.3C95.7,52.3,93.3,49.8,93.4,33.3z"/>
	<path class="st0" d="M16,67c0,0,0,0.1,0,0.1v0.6c0,0,0,0.1,0,0.1c0,0-0.1,0-0.1,0h-2l0,0v6.4c0,0.1,0,0.1-0.1,0.2c0,0,0,0,0,0H13
		c-0.1,0-0.1,0-0.2-0.1c0,0,0,0,0,0v-6.3l0,0h-2c-0.1,0-0.1,0-0.2-0.1c0,0,0,0,0,0V67c0,0,0-0.1,0-0.1c0,0,0.1,0,0.1,0h5
		C15.9,66.9,15.9,67,16,67z"/>
	<path class="st0" d="M21.5,67c0,0,0.1,0,0.1,0h0.7c0,0,0.1,0,0.1,0c0,0,0,0.1,0,0.1v7.2c0,0,0,0.1,0,0.1c0,0-0.1,0-0.1,0h-0.7
		c0,0-0.1,0-0.1,0c0,0,0-0.1,0-0.1v-3.2l0,0h-3.1l0,0v3.1c0,0,0,0.1,0,0.1c0,0-0.1,0-0.1,0h-0.7c0,0-0.1,0-0.1,0c0,0,0-0.1,0-0.1V67
		c0,0,0-0.1,0-0.1c0,0,0.1,0,0.1,0h0.7c0,0,0.1,0,0.1,0c0,0,0,0.1,0,0.1v3.1l0,0h3l0,0V67C21.4,67,21.4,67,21.5,67z"/>
	<path class="st0" d="M29.1,67.8c0,0-0.1,0-0.1,0h-3.7l0,0v2.3l0,0h2.6c0,0,0.1,0,0.1,0c0,0,0,0.1,0,0.1v0.7c0,0,0,0.1,0,0.1
		c0,0-0.1,0-0.1,0h-2.6l0,0v2.5l0,0H29c0.1,0,0.2,0.1,0.2,0.2v0.6c0,0,0,0.1,0,0.1c0,0-0.1,0-0.1,0h-4.7c0,0-0.1,0-0.1,0
		c0,0,0-0.1,0-0.1V67c0-0.1,0.1-0.2,0.2-0.2H29c0.1,0,0.2,0.1,0.2,0.2v0.6C29.2,67.7,29.1,67.7,29.1,67.8z"/>
	<path class="st0" d="M33.7,74.2c-0.4-0.2-0.7-0.5-0.9-0.9c-0.2-0.4-0.3-0.8-0.3-1.3v-2.8c0-0.5,0.1-0.9,0.3-1.3
		c0.2-0.4,0.5-0.7,0.9-0.9c0.4-0.2,0.9-0.3,1.4-0.3c0.4,0,0.9,0.1,1.3,0.3c0.4,0.2,0.7,0.5,0.9,0.8c0.2,0.4,0.3,0.8,0.3,1.3
		c0,0,0,0.1-0.2,0.1h-0.7l0,0c0,0,0,0-0.1,0c-0.1,0,0,0,0,0l0,0c0-0.4-0.1-0.8-0.4-1.1c-0.3-0.3-0.7-0.4-1.1-0.4
		c-0.4,0-0.8,0.1-1.1,0.4c-0.3,0.3-0.5,0.7-0.4,1.1v2.8c0,0.4,0.1,0.8,0.4,1.1c0.3,0.3,0.7,0.4,1.1,0.4c0.4,0,0.8-0.1,1.1-0.4
		c0.3-0.3,0.4-0.7,0.4-1.1c0,0,0-0.1,0-0.1c0,0,0,0,0.1,0h0.7c0.1,0,0.2,0,0.2,0l0,0c0,0.5-0.1,0.9-0.3,1.3
		c-0.2,0.4-0.5,0.7-0.9,0.8C35.6,74.7,34.6,74.7,33.7,74.2L33.7,74.2z"/>
	<path class="st0" d="M40.2,74.2c-0.4-0.2-0.7-0.5-0.9-0.9C39.1,72.9,39,72.4,39,72v-2.6c0-0.5,0.1-0.9,0.3-1.3
		c0.2-0.4,0.5-0.7,0.9-0.9c0.9-0.4,1.9-0.4,2.8,0c0.4,0.2,0.7,0.5,0.9,0.9c0.2,0.4,0.3,0.8,0.3,1.3V72c0,0.5-0.1,0.9-0.3,1.3
		c-0.2,0.4-0.5,0.7-0.9,0.9C42.1,74.6,41.1,74.6,40.2,74.2z M42.8,73.2c0.3-0.3,0.5-0.7,0.5-1.2v-2.6c0-0.4-0.1-0.9-0.5-1.2
		c-0.3-0.3-0.7-0.5-1.2-0.5c-0.4,0-0.9,0.1-1.2,0.5C40.2,68.5,40,69,40,69.4V72c0,0.4,0.1,0.9,0.4,1.2c0.3,0.3,0.7,0.5,1.2,0.5
		C42.1,73.6,42.5,73.5,42.8,73.2L42.8,73.2z"/>
	<path class="st0" d="M45.9,74.4c0,0,0-0.1,0-0.1V67c0,0,0-0.1,0-0.1c0,0,0.1,0,0.1,0h0.7c0.1,0,0.2,0,0.2,0.1l1.8,2.9
		c0,0,0,0,0.1,0l1.8-2.9c0-0.1,0.1-0.1,0.2-0.1h0.7c0,0,0.1,0,0.1,0c0,0,0,0.1,0,0.1v7.2c0,0.1,0,0.1-0.1,0.2c0,0,0,0,0,0h-0.7
		c-0.1,0-0.1,0-0.2-0.1c0,0,0,0,0,0v-5.4l0,0l0,0l-1.5,2.3c0,0.1-0.1,0.1-0.2,0.1h-0.3c-0.1,0-0.2,0-0.2-0.1l-1.4-2.4l0,0l0,0v5.4
		c0,0.1,0,0.1-0.1,0.2c0,0,0,0,0,0H46C45.9,74.4,45.9,74.4,45.9,74.4z"/>
	<path class="st0" d="M53.4,74.4c0,0,0-0.1,0-0.1V67c0,0,0-0.1,0-0.1c0,0,0.1,0,0.1,0h0.7c0.1,0,0.2,0,0.2,0.1l1.8,2.9
		c0,0,0,0,0.1,0l1.8-2.9c0-0.1,0.1-0.1,0.2-0.1H59c0.1,0,0.1,0.1,0.1,0.1l0,0v7.2c0,0,0,0.1,0,0.1c0,0-0.1,0-0.1,0h-0.7
		c0,0-0.1,0-0.1,0c0,0,0-0.1,0-0.1v-5.4l0,0l0,0l-1.5,2.3c0,0.1-0.1,0.1-0.2,0.1h-0.3c-0.1,0-0.2,0-0.2-0.1l-1.4-2.4l0,0l0,0v5.4
		c0,0,0,0.1,0,0.1c0,0-0.1,0-0.1,0h-0.7C53.6,74.4,53.5,74.4,53.4,74.4z"/>
	<path class="st0" d="M62.1,74.2c-0.4-0.2-0.7-0.5-0.9-0.9c-0.2-0.4-0.3-0.8-0.3-1.3v-5c0,0,0-0.1,0-0.1c0,0,0.1,0,0.1,0h0.7
		c0,0,0.1,0,0.1,0c0,0,0,0.1,0,0.1v5c0,0.4,0.1,0.8,0.5,1.1c0.3,0.3,0.7,0.4,1.1,0.4c0.4,0,0.8-0.1,1.2-0.4c0.3-0.3,0.5-0.7,0.4-1.1
		v-5c0,0,0-0.1,0-0.1c0,0,0.1,0,0.1,0h0.7c0,0,0.1,0,0.1,0c0,0,0,0.1,0,0.1V72c0,0.5-0.1,0.9-0.3,1.3c-0.2,0.4-0.5,0.7-0.9,0.9
		c-0.9,0.4-1.9,0.4-2.7,0L62.1,74.2z"/>
	<path class="st0" d="M67.8,74.4c0,0,0-0.1,0-0.1V67c0,0,0-0.1,0-0.1c0,0,0.1,0,0.1,0h0.7c0.1,0,0.2,0,0.2,0.1l3.2,5.3l0,0l0,0V67
		c0,0,0-0.1,0-0.1c0,0,0.1,0,0.1,0h0.7c0,0,0.1,0,0.1,0c0,0,0,0.1,0,0.1v7.2c0,0.1,0,0.1-0.1,0.2c0,0,0,0,0,0h-0.7
		c-0.1,0-0.1,0-0.2-0.1L68.9,69l0,0l0,0v5.3c0,0,0,0.1,0,0.1c0,0-0.1,0-0.1,0h-0.7C68,74.4,67.9,74.4,67.8,74.4
		C67.8,74.4,67.8,74.4,67.8,74.4z"/>
	<path class="st0" d="M75,74.4c0,0,0-0.1,0-0.1V67c0,0,0-0.1,0-0.1c0,0,0.1,0,0.1,0h0.7c0,0,0.1,0,0.1,0c0,0,0,0.1,0,0.1v7.2
		c0,0,0,0.1,0,0.1c0,0-0.1,0-0.1,0h-0.7C75.1,74.4,75,74.4,75,74.4z"/>
	<path class="st0" d="M82.5,67c0,0,0,0.1,0,0.1v0.6c0,0.1,0,0.1-0.1,0.2c0,0,0,0,0,0h-1.9l0,0v6.4c0,0,0,0.1,0,0.1c0,0-0.1,0-0.1,0
		h-0.7c0,0-0.1,0-0.1,0c0,0,0-0.1,0-0.1v-6.4l0,0h-2.1c0,0-0.1,0-0.1,0c0,0,0-0.1,0-0.1V67c0,0,0-0.1,0-0.1c0,0,0.1,0,0.1,0h5
		C82.4,66.9,82.5,67,82.5,67z"/>
	<path class="st0" d="M85.6,74.4c0,0,0-0.1,0-0.1v-3l0,0l-2.2-4.1c0,0,0,0,0-0.1c0-0.1,0-0.1,0.1-0.1h0.7c0.1,0,0.2,0,0.2,0.1
		l1.6,3.1c0,0,0,0,0.1,0l1.5-3.1c0-0.1,0.1-0.1,0.2-0.1h0.8c0.1,0,0.1,0,0.1,0.1v0.1l-2.2,4.1l0,0v3c0,0,0,0.1,0,0.1
		c0,0-0.1,0-0.1,0h-0.7C85.8,74.3,85.7,74.4,85.6,74.4z"/>
	<path class="st0" d="M18.7,78.5v3.3h-1.1l-0.2-0.3c-0.1-0.1-0.2-0.2-0.3-0.3c-0.1-0.1-0.2-0.2-0.4-0.2c-0.1,0-0.3,0-0.5,0v4.5
		l0.8,0.2v2.8h-5.8v-2.8l0.8-0.2v-4.5c-0.1,0-0.3,0-0.5,0c-0.1,0-0.3,0.1-0.4,0.2c-0.1,0.1-0.2,0.2-0.3,0.3l-0.2,0.3H9.5v-3.3H18.7z
		"/>
	<path class="st0" d="M25.1,88.6c-0.5,0-1,0-1.5-0.1c-0.5-0.1-0.9-0.2-1.4-0.4c-0.4-0.2-0.8-0.4-1.2-0.7c-0.4-0.3-0.7-0.6-0.9-1
		c-0.3-0.4-0.5-0.8-0.6-1.3c-0.1-0.6-0.2-1.1-0.2-1.7c0-0.5,0.1-1.1,0.2-1.6c0.1-0.5,0.3-0.9,0.6-1.3c0.3-0.4,0.6-0.7,0.9-1
		c0.4-0.3,0.8-0.5,1.2-0.7c0.5-0.2,0.9-0.3,1.4-0.4c0.5-0.1,1-0.1,1.5-0.1c0.5,0,1,0,1.6,0.1c0.5,0.1,1,0.2,1.4,0.4
		c0.4,0.2,0.8,0.4,1.2,0.7c0.4,0.3,0.7,0.6,0.9,1c0.3,0.4,0.5,0.8,0.6,1.3c0.4,1.3,0.3,2.8-0.2,4c-0.3,0.6-0.7,1.2-1.3,1.6
		c-0.5,0.4-1.2,0.7-1.9,0.9C26.6,88.6,25.9,88.6,25.1,88.6z M25.1,81.3c-0.2,0-0.5,0-0.7,0.1c-0.2,0.1-0.3,0.2-0.5,0.3
		c-0.1,0.1-0.2,0.3-0.3,0.4c-0.1,0.1-0.1,0.3-0.1,0.5c0,0.1,0,0.3,0,0.4c0,0.1,0,0.3,0,0.4c0,0.1,0,0.2,0,0.4c0,0.1,0,0.3,0,0.4
		c0,0.2,0.1,0.3,0.1,0.5c0.1,0.2,0.2,0.3,0.3,0.4c0.1,0.1,0.3,0.2,0.5,0.3c0.2,0.1,0.5,0.1,0.7,0.1c0.2,0,0.5,0,0.7-0.1
		c0.2-0.1,0.3-0.2,0.5-0.3c0.1-0.1,0.2-0.3,0.3-0.4c0.1-0.1,0.1-0.3,0.1-0.5c0-0.1,0-0.3,0-0.4c0-0.1,0-0.3,0-0.4c0-0.1,0-0.2,0-0.4
		c0-0.1,0-0.3,0-0.4c0-0.2-0.1-0.3-0.1-0.5c-0.1-0.1-0.2-0.3-0.3-0.4c-0.1-0.1-0.3-0.2-0.5-0.3C25.6,81.3,25.3,81.3,25.1,81.3z"/>
	<path class="st0" d="M37.6,88.6c-0.5,0-1,0-1.5-0.1c-0.9-0.1-1.8-0.5-2.6-1c-0.4-0.3-0.7-0.6-0.9-1c-0.2-0.4-0.4-0.9-0.5-1.3
		c-0.2-0.6-0.2-1.1-0.2-1.7c0-0.6,0.1-1.1,0.2-1.6c0.1-0.5,0.3-0.9,0.6-1.3c0.2-0.4,0.6-0.7,0.9-1c0.4-0.3,0.8-0.5,1.2-0.7
		c0.5-0.2,0.9-0.3,1.4-0.4c0.5-0.1,1-0.1,1.6-0.1c0.5,0,1,0,1.5,0.1c0.5,0.1,1,0.2,1.4,0.4c0.4,0.2,0.8,0.4,1.2,0.7
		c0.4,0.3,0.7,0.6,0.9,1c0.3,0.4,0.5,0.8,0.6,1.3c0.3,1.3,0.3,2.8-0.3,4c-0.3,0.6-0.7,1.2-1.3,1.6c-0.5,0.4-1.2,0.7-1.9,0.9
		C39.2,88.5,38.4,88.6,37.6,88.6z M37.6,81.3c-0.2,0-0.5,0-0.7,0.1c-0.2,0.1-0.3,0.2-0.5,0.3c-0.1,0.1-0.2,0.2-0.3,0.4
		c-0.1,0.1-0.1,0.3-0.1,0.5c0,0.1,0,0.3,0,0.4v0.8c0,0.1,0,0.3,0,0.4c0,0.2,0.1,0.3,0.1,0.5c0.1,0.2,0.2,0.3,0.3,0.4
		c0.1,0.1,0.3,0.2,0.5,0.3c0.2,0.1,0.5,0.1,0.7,0.1c0.2,0,0.5,0,0.7-0.1c0.2-0.1,0.3-0.2,0.5-0.3c0.1-0.1,0.2-0.3,0.3-0.4
		c0.1-0.2,0.1-0.3,0.2-0.5c0-0.1,0-0.3,0-0.4c0-0.1,0-0.3,0-0.4s0-0.2,0-0.4c0-0.1,0-0.3,0-0.4c0-0.2-0.1-0.3-0.2-0.5
		c-0.1-0.1-0.2-0.3-0.3-0.4c-0.1-0.1-0.3-0.2-0.5-0.3C38.1,81.4,37.9,81.3,37.6,81.3z"/>
	<path class="st0" d="M49.5,86c0.2,0,0.4,0,0.6-0.1c0.2,0,0.3-0.1,0.5-0.2c0.2-0.1,0.3-0.2,0.4-0.3c0.1-0.1,0.2-0.2,0.3-0.3h1.1v3.3
		h-8v-2.8l0.8-0.2v-4l-0.8-0.2v-2.8h5.8v2.8l-0.8,0.2L49.5,86z"/>
	<path class="st0" d="M61.6,78.5c0.6,0.1,1.1,0.4,1.5,0.8c0.4,0.4,0.5,1,0.5,1.5c0,0.4,0,0.7-0.1,1.1c-0.1,0.3-0.2,0.5-0.3,0.7
		c-0.1,0.2-0.3,0.3-0.5,0.4c-0.1,0.1-0.3,0.2-0.5,0.2c-0.1,0-0.2,0.1-0.3,0.1h-0.2c0.2,0,0.4,0,0.5,0c0.2,0,0.4,0.1,0.6,0.1
		c0.2,0.1,0.4,0.2,0.5,0.3c0.2,0.1,0.3,0.2,0.5,0.4c0.1,0.2,0.2,0.4,0.3,0.6c0.1,0.2,0.1,0.5,0.1,0.7c0,0.4-0.1,0.8-0.2,1.2
		c-0.1,0.4-0.3,0.7-0.6,0.9c-0.3,0.3-0.7,0.5-1.1,0.6c-0.6,0.2-1.2,0.2-1.7,0.2h-7.6v-2.8l0.8-0.2v-4.2l-0.8-0.2v-2.6L61.6,78.5z
		 M60.1,81.7c0-0.2,0-0.4-0.1-0.5c-0.1-0.1-0.2-0.2-0.3-0.3c-0.1-0.1-0.3-0.1-0.4-0.1h-1.1v1.9h1.1c0.2,0,0.3,0,0.4-0.1
		c0.1-0.1,0.2-0.2,0.3-0.3C60.1,82.1,60.1,81.9,60.1,81.7z M60.1,84.9c0-0.2,0-0.4-0.1-0.5c-0.1-0.1-0.2-0.2-0.3-0.3
		c-0.1-0.1-0.3-0.1-0.4-0.1h-1.1v1.9h1.1c0.2,0,0.3,0,0.4-0.1c0.1-0.1,0.2-0.2,0.3-0.3C60.1,85.4,60.1,85.1,60.1,84.9z"/>
	<path class="st0" d="M70.8,88.6c-0.5,0-1,0-1.5-0.1c-0.5-0.1-0.9-0.2-1.4-0.4c-0.4-0.2-0.8-0.4-1.2-0.7c-0.4-0.3-0.7-0.6-0.9-1
		c-0.3-0.4-0.5-0.8-0.6-1.3C65.1,84.6,65,84,65,83.4c0-0.5,0.1-1.1,0.2-1.6c0.1-0.5,0.3-0.9,0.6-1.3c0.2-0.4,0.6-0.7,0.9-1
		c0.4-0.3,0.8-0.5,1.2-0.7c0.5-0.2,0.9-0.3,1.4-0.4c0.5-0.1,1-0.1,1.6-0.1c0.5,0,1,0,1.5,0.1c0.5,0.1,1,0.2,1.4,0.4
		c0.4,0.2,0.8,0.4,1.2,0.7c0.4,0.3,0.7,0.6,0.9,1c0.3,0.4,0.5,0.8,0.6,1.3c0.3,1.3,0.3,2.8-0.3,4c-0.3,0.6-0.7,1.2-1.3,1.6
		c-0.5,0.4-1.2,0.7-1.9,0.9C72.3,88.6,71.6,88.6,70.8,88.6z M70.8,81.3c-0.2,0-0.5,0-0.7,0.1c-0.2,0.1-0.3,0.2-0.5,0.3
		c-0.1,0.1-0.2,0.2-0.3,0.4c-0.1,0.1-0.1,0.3-0.2,0.5c0,0.1,0,0.3,0,0.4v0.8c0,0.1,0,0.3,0,0.4c0,0.2,0.1,0.3,0.2,0.5
		c0.1,0.2,0.2,0.3,0.3,0.4c0.1,0.1,0.3,0.2,0.5,0.3c0.2,0.1,0.5,0.1,0.7,0.1c0.2,0,0.5,0,0.7-0.1c0.2-0.1,0.4-0.2,0.5-0.3
		c0.1-0.1,0.2-0.3,0.3-0.4c0.1-0.1,0.1-0.3,0.1-0.5c0-0.1,0-0.3,0-0.4V83c0-0.1,0-0.3,0-0.4c0-0.2-0.1-0.3-0.1-0.5
		c-0.1-0.2-0.2-0.3-0.3-0.4c-0.1-0.1-0.3-0.2-0.5-0.3C71.3,81.4,71.1,81.3,70.8,81.3z"/>
	<path class="st0" d="M89,85.5l1,0.2v2.8h-6.6v-2.8l0.7-0.2l-1.5-1.2l-1.3,1.2l1.3,0.2v2.8h-5v-2.8l1-0.2l2.4-2.1l-2.3-1.9l-1.2-0.2
		v-2.8h6.4v2.8l-0.7,0.2l1.7,1.3l1.1-1.3l-1.2-0.2v-2.8h5v2.8l-1.2,0.2l-1.9,2L89,85.5z"/>
	<polygon class="st0" points="53.6,56.3 57.4,56.3 57.7,53.6 52.5,53.6 	"/>
	<path class="st0" d="M40.1,53.6H14.4l0.8-0.4v-5.1c-1.3-1-1.6-6.6-1.6-6.6l-1.3-0.9l0.6,7.5l-4.2,2.3l-0.7,1.9v4.4l0.9-0.3h32.5
		L40.1,53.6z"/>
</g>
</svg>
