<?xml version="1.0" encoding="utf-8"?>
<!-- Generator: Adobe Illustrator 23.1.1, SVG Export Plug-In . SVG Version: 6.00 Build 0)  -->
<svg version="1.1" id="Layer_1" xmlns="http://www.w3.org/2000/svg" xmlns:xlink="http://www.w3.org/1999/xlink" x="0px" y="0px"
	 viewBox="0 0 100 100" style="enable-background:new 0 0 100 100;" xml:space="preserve">
<style type="text/css">
	.st0{fill:#3C3C3C;}
	.st1{fill:#FDC069;}
</style>
<title>FULLCOLOR</title>
<g>
	<path class="st0" d="M52.6,47.1L41.2,20c-2.3,0.9-4.4,2.2-6.3,3.7l-0.4,0.4l9.7,23H52.6z"/>
	<polygon class="st0" points="64.7,47.1 65.9,37.8 59.6,36.9 58.3,47.1 	"/>
	<path class="st0" d="M70,47.1c2-5.5,5.1-12.4,7.3-17.5h-4c-2.7,6.6-5.8,14-7.3,17.5H70z"/>
	<path class="st1" d="M78.7,8.8l1.6-2.3c0,0,0.8-0.6,0.6,1c-0.2,1.6-1,3.6,0.8,4c1,0.2,2,0.3,3,0.1c0.5-1.5,1-3.1,1.3-4.7
		c0-1,1.2,1.6,1.2,3.2c0.3,2.1-0.7,4.2-2.6,5.3c-2.6,1.5-6.1-2-6.1-2C77.7,11.9,77.8,10.2,78.7,8.8z"/>
	<path class="st0" d="M77.9,18.5h4.3c0.4-0.6,0.8-1.2,1.1-1.6c-1.7-0.1-3.3-0.7-4.6-1.8c0.1,0.7,0,1.4-0.2,2.1
		C78.5,17.1,78.2,17.7,77.9,18.5z"/>
	<path class="st0" d="M97.2,20.3h-2.6c0,0.3,0,0.6,0,0.9c0,2.5,0,4.6,0.1,6.5h2.4c1.5,0,2.8-1.2,2.8-2.8l0,0v-1.8
		C100,21.6,98.8,20.3,97.2,20.3z"/>
	<path class="st0" d="M2.8,20.3h2.6c0,0.3,0,0.6,0,0.9c0,2.5,0,4.6-0.1,6.5H2.8c-1.5,0-2.8-1.3-2.8-2.8l0,0v-1.8
		C0,21.6,1.3,20.3,2.8,20.3z"/>
	<path class="st0" d="M32.5,23.2L32.5,23.2c-0.5-0.4-1-0.8-1.4-1.4l-1-1.4h-4.9c-0.4,0.3-0.7,0.7-1.1,1.1c-0.4,0.5-0.9,0.9-1.4,1.2
		L21,23.5l-0.4-0.9l-4.1,1.8l-1.7-3.5l0,0l-0.3-0.5h-3.8c0,0-3.7,0.2-1.9,7.4h25.5L32.5,23.2z"/>
	<path class="st0" d="M58.1,12.4c-1.1,0.7-2.7,0.4-7.7-0.5c-1.9-0.3-4.1-0.8-6.5-1.1c-2.3-0.4-2.9-0.2-2.9-0.4s0.2,0.3,0.2,0.3
		l0.8,2.2c2.2-0.8,6.3-0.7,13.6,2.1c0,0,1,1.4,2.9-0.2C58.8,14,58.7,13,58.1,12.4z"/>
	<path class="st1" d="M54.5,8.6c0,0-13.6-7.1-21.3-3.6l-7.7,3.5c-0.1,0.2-2,4.4-4.9,4.3c-1.3-0.1-2.6,0-3.8,0.3l-2.9,1.5
		c0,0-1,0.3,0.4,2.6c0.3,0.6,0.6,1.1,0.9,1.7l2.7-1.3l-0.5-1.7l1.8-0.7c1-0.4,6-2.6,6.8-2.9c0.5-0.2,1.1-0.2,1.6,0
		c1.8,0.6,4.3,3.4,4.6,3.9c0.4,0.7,0.8,1.4,1.2,2.1c0.5,1,0.1,2.2-1,2.8l0,0c0.4,0.6,0.9,1,1.2,1.1c1.8-1.4,3.8-2.6,5.8-3.6
		c1.1-0.5,1.6-1.7,1.3-2.8l-1.4-4.5c0,0-1.9-3.5,4.9-2.5s12.4,2.4,12.8,1.9C58.1,9.3,54.5,8.6,54.5,8.6z"/>
	<path class="st0" d="M30.5,17.3c-0.3-0.5-3.1-3.3-3.9-3.1c-0.8,0.3-6.7,2.8-6.7,2.8l0.6,1.6l-4.3,2l0.8,1.8l4.2-1.9l0.4,0.9
		c1.1-0.6,3.3-5,8.2-3.1c0.7,0.5,1.3,1.1,1.8,1.9c0.4,0.5,0-0.4-0.5-1.5C31,18.1,30.8,17.7,30.5,17.3z"/>
	<path class="st0" d="M59.8,34.2l6.8,1c0.5,0.1,0.9,0.6,0.8,1.1l0,0c-0.1,0.5-0.6,0.9-1.1,0.8l-6.8-1C59,36,58.6,35.5,58.7,35l0,0
		C58.8,34.5,59.3,34.1,59.8,34.2z"/>
	<polygon class="st1" points="66.3,16.8 65.4,16.7 64.6,18.3 62.3,33.4 64.4,33.7 66.6,18.6 	"/>
	<polygon class="st0" points="61.9,27.7 63,20.3 61.2,20.3 43.7,20.3 46.8,27.7 61.2,27.7 	"/>
	<path class="st0" d="M88.3,20.3H67.6l-1.1,7.4h23.6C92,20.5,88.3,20.3,88.3,20.3z"/>
	<path class="st0" d="M90.5,38.3L86.2,36l0.6-7.5l-1.3,0.9c0,0-0.3,5.7-1.6,6.6v5.1l0.8,0.4H74.1c-0.4,0.9-0.8,1.8-1.1,2.8h17.4
		l0.9,0.3v-4.3L90.5,38.3z"/>
	<path class="st1" d="M93.4,21.2c0-4.1-4.6-3.4-4.6-3.4c0.8,0.4,1.5,1,2,1.7c0.9,1.3,1.2,2.5,1.2,5.8s0,12.1,1.2,14.9v4.9H6.3v-4.8
		c1.2-2.9,1.2-11.7,1.2-15s0.3-4.4,1.2-5.8c0.5-0.8,1.2-1.4,2-1.7c0,0-4.7-0.6-4.6,3.4c0.1,16.5-2.5,19-2.5,19v44.6
		c0,3.6,2.6,3.1,2.6,3.1h86.9c0,0,2.6,0.6,2.6-3.1V40.2C95.7,40.2,93.3,37.7,93.4,21.2z"/>
	<path class="st0" d="M16,54.9L16,54.9v0.7v0.1h-0.1h-2l0,0v6.4c0,0.1,0,0.1-0.1,0.2l0,0H13c-0.1,0-0.1,0-0.2-0.1l0,0v-6.3l0,0h-2
		c-0.1,0-0.1,0-0.2-0.1l0,0v-0.9v-0.1h0.1h5C15.9,54.8,15.9,54.9,16,54.9z"/>
	<path class="st0" d="M21.5,54.9h0.1h0.7h0.1V55v7.2v0.1h-0.1h-0.7h-0.1v-0.1V59l0,0h-3.1l0,0v3.1v0.1h-0.1h-0.7h-0.1v-0.1v-7.2
		v-0.1h0.1h0.7h0.1v0.1V58l0,0h3l0,0v-3.1C21.4,54.9,21.4,54.9,21.5,54.9z"/>
	<path class="st0" d="M29.1,55.7H29h-3.7l0,0V58l0,0h2.6H28v0.1v0.7v0.1h-0.1h-2.6l0,0v2.5l0,0H29c0.1,0,0.2,0.1,0.2,0.2v0.6v0.1
		h-0.1h-4.7h-0.1v-0.1v-7.3c0-0.1,0.1-0.2,0.2-0.2H29c0.1,0,0.2,0.1,0.2,0.2v0.6C29.2,55.6,29.1,55.6,29.1,55.7z"/>
	<path class="st0" d="M33.7,62.1c-0.4-0.2-0.7-0.5-0.9-0.9s-0.3-0.8-0.3-1.3v-2.8c0-0.5,0.1-0.9,0.3-1.3s0.5-0.7,0.9-0.9
		c0.4-0.2,0.9-0.3,1.4-0.3c0.4,0,0.9,0.1,1.3,0.3c0.4,0.2,0.7,0.5,0.9,0.8c0.2,0.4,0.3,0.8,0.3,1.3c0,0,0,0.1-0.2,0.1h-0.7l0,0
		c0,0,0,0-0.1,0s0,0,0,0l0,0c0-0.4-0.1-0.8-0.4-1.1c-0.3-0.3-0.7-0.4-1.1-0.4c-0.4,0-0.8,0.1-1.1,0.4s-0.5,0.7-0.4,1.1v2.8
		c0,0.4,0.1,0.8,0.4,1.1c0.3,0.3,0.7,0.4,1.1,0.4c0.4,0,0.8-0.1,1.1-0.4s0.4-0.7,0.4-1.1v-0.1c0,0,0,0,0.1,0h0.7c0.1,0,0.2,0,0.2,0
		l0,0c0,0.5-0.1,0.9-0.3,1.3s-0.5,0.7-0.9,0.8C35.6,62.6,34.6,62.6,33.7,62.1L33.7,62.1z"/>
	<path class="st0" d="M40.2,62.1c-0.4-0.2-0.7-0.5-0.9-0.9c-0.2-0.4-0.3-0.9-0.3-1.3v-2.6c0-0.5,0.1-0.9,0.3-1.3s0.5-0.7,0.9-0.9
		c0.9-0.4,1.9-0.4,2.8,0c0.4,0.2,0.7,0.5,0.9,0.9s0.3,0.8,0.3,1.3v2.6c0,0.5-0.1,0.9-0.3,1.3s-0.5,0.7-0.9,0.9
		C42.1,62.5,41.1,62.5,40.2,62.1z M42.8,61.1c0.3-0.3,0.5-0.7,0.5-1.2v-2.6c0-0.4-0.1-0.9-0.5-1.2c-0.3-0.3-0.7-0.5-1.2-0.5
		c-0.4,0-0.9,0.1-1.2,0.5c-0.2,0.3-0.4,0.8-0.4,1.2v2.6c0,0.4,0.1,0.9,0.4,1.2c0.3,0.3,0.7,0.5,1.2,0.5
		C42.1,61.5,42.5,61.4,42.8,61.1L42.8,61.1z"/>
	<path class="st0" d="M45.9,62.3L45.9,62.3v-7.4v-0.1H46h0.7c0.1,0,0.2,0,0.2,0.1l1.8,2.9c0,0,0,0,0.1,0l1.8-2.9
		c0-0.1,0.1-0.1,0.2-0.1h0.7h0.1v0.1v7.2c0,0.1,0,0.1-0.1,0.2l0,0h-0.7c-0.1,0-0.1,0-0.2-0.1l0,0v-5.4l0,0l0,0l-1.5,2.3
		c0,0.1-0.1,0.1-0.2,0.1h-0.3c-0.1,0-0.2,0-0.2-0.1L47,56.7l0,0l0,0v5.4c0,0.1,0,0.1-0.1,0.2l0,0L45.9,62.3
		C45.9,62.3,45.9,62.3,45.9,62.3z"/>
	<path class="st0" d="M53.4,62.3L53.4,62.3v-7.4v-0.1h0.1h0.7c0.1,0,0.2,0,0.2,0.1l1.8,2.9c0,0,0,0,0.1,0l1.8-2.9
		c0-0.1,0.1-0.1,0.2-0.1H59c0.1,0,0.1,0.1,0.1,0.1l0,0v7.2v0.1H59h-0.7h-0.1v-0.1v-5.4l0,0l0,0L56.7,59c0,0.1-0.1,0.1-0.2,0.1h-0.3
		c-0.1,0-0.2,0-0.2-0.1l-1.4-2.4l0,0l0,0V62v0.1h-0.1h-0.7C53.6,62.3,53.5,62.3,53.4,62.3z"/>
	<path class="st0" d="M62.1,62.1c-0.4-0.2-0.7-0.5-0.9-0.9s-0.3-0.8-0.3-1.3v-5v-0.1H61h0.7h0.1v0.1v5c0,0.4,0.1,0.8,0.5,1.1
		c0.3,0.3,0.7,0.4,1.1,0.4c0.4,0,0.8-0.1,1.2-0.4c0.3-0.3,0.5-0.7,0.4-1.1v-5v-0.1h0.1h0.7h0.1v0.1v5c0,0.5-0.1,0.9-0.3,1.3
		c-0.2,0.4-0.5,0.7-0.9,0.9c-0.9,0.4-1.9,0.4-2.7,0L62.1,62.1z"/>
	<path class="st0" d="M67.8,62.3L67.8,62.3v-7.4v-0.1h0.1h0.7c0.1,0,0.2,0,0.2,0.1l3.2,5.3l0,0l0,0v-5.3v-0.1h0.1h0.7h0.1v0.1v7.2
		c0,0.1,0,0.1-0.1,0.2l0,0h-0.7c-0.1,0-0.1,0-0.2-0.1l-3-5.3l0,0l0,0v5.3v0.1h-0.1h-0.7C68,62.3,67.9,62.3,67.8,62.3L67.8,62.3z"/>
	<path class="st0" d="M75,62.3L75,62.3v-7.4v-0.1h0.1h0.7h0.1v0.1v7.2v0.1h-0.1h-0.7C75.1,62.3,75,62.3,75,62.3z"/>
	<path class="st0" d="M82.5,54.9L82.5,54.9v0.7c0,0.1,0,0.1-0.1,0.2l0,0h-1.9l0,0v6.4v0.1h-0.1h-0.7h-0.1v-0.1v-6.4l0,0h-2.1h-0.1
		v-0.1v-0.8v-0.1h0.1L82.5,54.9C82.4,54.8,82.5,54.9,82.5,54.9z"/>
	<path class="st0" d="M85.6,62.3L85.6,62.3v-3.1l0,0l-2.2-4.1c0,0,0,0,0-0.1s0-0.1,0.1-0.1h0.7c0.1,0,0.2,0,0.2,0.1l1.6,3.1
		c0,0,0,0,0.1,0l1.5-3.1c0-0.1,0.1-0.1,0.2-0.1h0.8c0.1,0,0.1,0,0.1,0.1v0.1l-2.2,4.1l0,0v3v0.1h-0.1H85.6
		C85.8,62.2,85.7,62.3,85.6,62.3z"/>
	<path class="st0" d="M18.7,66.4v3.3h-1.1l-0.2-0.3c-0.1-0.1-0.2-0.2-0.3-0.3c-0.1-0.1-0.2-0.2-0.4-0.2c-0.1,0-0.3,0-0.5,0v4.5
		l0.8,0.2v2.8h-5.8v-2.8l0.8-0.2v-4.5c-0.1,0-0.3,0-0.5,0c-0.1,0-0.3,0.1-0.4,0.2c-0.1,0.1-0.2,0.2-0.3,0.3l-0.2,0.3H9.5v-3.3H18.7z
		"/>
	<path class="st0" d="M25.1,76.5c-0.5,0-1,0-1.5-0.1s-0.9-0.2-1.4-0.4c-0.4-0.2-0.8-0.4-1.2-0.7c-0.4-0.3-0.7-0.6-0.9-1
		c-0.3-0.4-0.5-0.8-0.6-1.3c-0.1-0.6-0.2-1.1-0.2-1.7c0-0.5,0.1-1.1,0.2-1.6s0.3-0.9,0.6-1.3c0.3-0.4,0.6-0.7,0.9-1
		c0.4-0.3,0.8-0.5,1.2-0.7c0.5-0.2,0.9-0.3,1.4-0.4s1-0.1,1.5-0.1s1,0,1.6,0.1c0.5,0.1,1,0.2,1.4,0.4c0.4,0.2,0.8,0.4,1.2,0.7
		c0.4,0.3,0.7,0.6,0.9,1c0.3,0.4,0.5,0.8,0.6,1.3c0.4,1.3,0.3,2.8-0.2,4c-0.3,0.6-0.7,1.2-1.3,1.6c-0.5,0.4-1.2,0.7-1.9,0.9
		C26.6,76.5,25.9,76.5,25.1,76.5z M25.1,69.2c-0.2,0-0.5,0-0.7,0.1s-0.3,0.2-0.5,0.3c-0.1,0.1-0.2,0.3-0.3,0.4
		c-0.1,0.1-0.1,0.3-0.1,0.5c0,0.1,0,0.3,0,0.4s0,0.3,0,0.4s0,0.2,0,0.4c0,0.1,0,0.3,0,0.4c0,0.2,0.1,0.3,0.1,0.5
		c0.1,0.2,0.2,0.3,0.3,0.4c0.1,0.1,0.3,0.2,0.5,0.3c0.2,0.1,0.5,0.1,0.7,0.1s0.5,0,0.7-0.1s0.3-0.2,0.5-0.3c0.1-0.1,0.2-0.3,0.3-0.4
		c0.1-0.1,0.1-0.3,0.1-0.5c0-0.1,0-0.3,0-0.4s0-0.3,0-0.4s0-0.2,0-0.4c0-0.1,0-0.3,0-0.4c0-0.2-0.1-0.3-0.1-0.5
		c-0.1-0.1-0.2-0.3-0.3-0.4c-0.1-0.1-0.3-0.2-0.5-0.3C25.6,69.2,25.3,69.2,25.1,69.2z"/>
	<path class="st0" d="M37.6,76.5c-0.5,0-1,0-1.5-0.1c-0.9-0.1-1.8-0.5-2.6-1c-0.4-0.3-0.7-0.6-0.9-1s-0.4-0.9-0.5-1.3
		c-0.2-0.6-0.2-1.1-0.2-1.7s0.1-1.1,0.2-1.6c0.1-0.5,0.3-0.9,0.6-1.3c0.2-0.4,0.6-0.7,0.9-1c0.4-0.3,0.8-0.5,1.2-0.7
		c0.5-0.2,0.9-0.3,1.4-0.4s1-0.1,1.6-0.1c0.5,0,1,0,1.5,0.1s1,0.2,1.4,0.4c0.4,0.2,0.8,0.4,1.2,0.7c0.4,0.3,0.7,0.6,0.9,1
		c0.3,0.4,0.5,0.8,0.6,1.3c0.3,1.3,0.3,2.8-0.3,4c-0.3,0.6-0.7,1.2-1.3,1.6c-0.5,0.4-1.2,0.7-1.9,0.9C39.2,76.4,38.4,76.5,37.6,76.5
		z M37.6,69.2c-0.2,0-0.5,0-0.7,0.1s-0.3,0.2-0.5,0.3c-0.1,0.1-0.2,0.2-0.3,0.4C36,70.1,36,70.3,36,70.5c0,0.1,0,0.3,0,0.4v0.8
		c0,0.1,0,0.3,0,0.4c0,0.2,0.1,0.3,0.1,0.5c0.1,0.2,0.2,0.3,0.3,0.4s0.3,0.2,0.5,0.3c0.2,0.1,0.5,0.1,0.7,0.1s0.5,0,0.7-0.1
		s0.3-0.2,0.5-0.3c0.1-0.1,0.2-0.3,0.3-0.4c0.1-0.2,0.1-0.3,0.2-0.5c0-0.1,0-0.3,0-0.4s0-0.3,0-0.4s0-0.2,0-0.4c0-0.1,0-0.3,0-0.4
		c0-0.2-0.1-0.3-0.2-0.5c-0.1-0.1-0.2-0.3-0.3-0.4s-0.3-0.2-0.5-0.3C38.1,69.3,37.9,69.2,37.6,69.2z"/>
	<path class="st0" d="M49.5,73.9c0.2,0,0.4,0,0.6-0.1c0.2,0,0.3-0.1,0.5-0.2s0.3-0.2,0.4-0.3c0.1-0.1,0.2-0.2,0.3-0.3h1.1v3.3h-8
		v-2.8l0.8-0.2v-4l-0.8-0.2v-2.8h5.8v2.8l-0.8,0.2L49.5,73.9z"/>
	<path class="st0" d="M61.6,66.4c0.6,0.1,1.1,0.4,1.5,0.8s0.5,1,0.5,1.5c0,0.4,0,0.7-0.1,1.1c-0.1,0.3-0.2,0.5-0.3,0.7
		s-0.3,0.3-0.5,0.4c-0.1,0.1-0.3,0.2-0.5,0.2c-0.1,0-0.2,0.1-0.3,0.1h-0.2c0.2,0,0.4,0,0.5,0c0.2,0,0.4,0.1,0.6,0.1
		c0.2,0.1,0.4,0.2,0.5,0.3c0.2,0.1,0.3,0.2,0.5,0.4c0.1,0.2,0.2,0.4,0.3,0.6s0.1,0.5,0.1,0.7c0,0.4-0.1,0.8-0.2,1.2
		c-0.1,0.4-0.3,0.7-0.6,0.9c-0.3,0.3-0.7,0.5-1.1,0.6c-0.6,0.2-1.2,0.2-1.7,0.2H53v-2.8l0.8-0.2V69L53,68.8v-2.6L61.6,66.4z
		 M60.1,69.6c0-0.2,0-0.4-0.1-0.5s-0.2-0.2-0.3-0.3c-0.1-0.1-0.3-0.1-0.4-0.1h-1.1v1.9h1.1c0.2,0,0.3,0,0.4-0.1
		c0.1-0.1,0.2-0.2,0.3-0.3C60.1,70,60.1,69.8,60.1,69.6z M60.1,72.8c0-0.2,0-0.4-0.1-0.5s-0.2-0.2-0.3-0.3c-0.1-0.1-0.3-0.1-0.4-0.1
		h-1.1v1.9h1.1c0.2,0,0.3,0,0.4-0.1c0.1-0.1,0.2-0.2,0.3-0.3C60.1,73.3,60.1,73,60.1,72.8z"/>
	<path class="st0" d="M70.8,76.5c-0.5,0-1,0-1.5-0.1s-0.9-0.2-1.4-0.4c-0.4-0.2-0.8-0.4-1.2-0.7c-0.4-0.3-0.7-0.6-0.9-1
		c-0.3-0.4-0.5-0.8-0.6-1.3c-0.1-0.5-0.2-1.1-0.2-1.7c0-0.5,0.1-1.1,0.2-1.6s0.3-0.9,0.6-1.3c0.2-0.4,0.6-0.7,0.9-1
		c0.4-0.3,0.8-0.5,1.2-0.7c0.5-0.2,0.9-0.3,1.4-0.4s1-0.1,1.6-0.1c0.5,0,1,0,1.5,0.1s1,0.2,1.4,0.4c0.4,0.2,0.8,0.4,1.2,0.7
		c0.4,0.3,0.7,0.6,0.9,1c0.3,0.4,0.5,0.8,0.6,1.3c0.3,1.3,0.3,2.8-0.3,4c-0.3,0.6-0.7,1.2-1.3,1.6c-0.5,0.4-1.2,0.7-1.9,0.9
		C72.3,76.5,71.6,76.5,70.8,76.5z M70.8,69.2c-0.2,0-0.5,0-0.7,0.1s-0.3,0.2-0.5,0.3c-0.1,0.1-0.2,0.2-0.3,0.4
		c-0.1,0.1-0.1,0.3-0.2,0.5c0,0.1,0,0.3,0,0.4v0.8c0,0.1,0,0.3,0,0.4c0,0.2,0.1,0.3,0.2,0.5s0.2,0.3,0.3,0.4
		c0.1,0.1,0.3,0.2,0.5,0.3c0.2,0.1,0.5,0.1,0.7,0.1s0.5,0,0.7-0.1s0.4-0.2,0.5-0.3c0.1-0.1,0.2-0.3,0.3-0.4c0.1-0.1,0.1-0.3,0.1-0.5
		c0-0.1,0-0.3,0-0.4v-0.8c0-0.1,0-0.3,0-0.4c0-0.2-0.1-0.3-0.1-0.5c-0.1-0.2-0.2-0.3-0.3-0.4c-0.1-0.1-0.3-0.2-0.5-0.3
		C71.3,69.3,71.1,69.2,70.8,69.2z"/>
	<path class="st0" d="M89,73.4l1,0.2v2.8h-6.6v-2.8l0.7-0.2l-1.5-1.2l-1.3,1.2l1.3,0.2v2.8h-5v-2.8l1-0.2l2.4-2.1l-2.3-1.9l-1.2-0.2
		v-2.8h6.4v2.8l-0.7,0.2l1.7,1.3l1.1-1.3l-1.2-0.2v-2.8h5v2.8l-1.2,0.2l-1.9,2L89,73.4z"/>
	<polygon class="st0" points="53.6,44.2 57.4,44.2 57.7,41.5 52.5,41.5 	"/>
	<path class="st0" d="M40.1,41.5H14.4l0.8-0.4V36c-1.3-1-1.6-6.6-1.6-6.6l-1.3-0.9l0.6,7.5l-4.2,2.3L8,40.2v4.4l0.9-0.3h32.5
		L40.1,41.5z"/>
</g>
</svg>
