<svg id="Layer_2" data-name="Layer 2" xmlns="http://www.w3.org/2000/svg" viewBox="0 0 99.55 70"><defs><style>.cls-1{fill:#3c3c3c;}.cls-2{fill:#fdc069;}</style></defs><title>FULLCOLOR</title><path class="cls-1" d="M50.92,35.89l-8.83-21a21,21,0,0,0-4.92,2.89l-.34.28,7.5,17.82Z"/><polygon class="cls-1" points="60.3 35.89 61.27 28.75 56.38 28.02 55.33 35.89 60.3 35.89"/><path class="cls-1" d="M64.41,35.89c1.56-4.3,3.94-9.63,5.68-13.6H67c-2.11,5.09-4.5,10.84-5.67,13.6Z"/><path class="cls-2" d="M71.13,6.23l1.22-1.79s.63-.45.46.77S72,8,73.4,8.34a5.82,5.82,0,0,0,2.36.09,27.69,27.69,0,0,0,1-3.64c0-.75.92,1.27.94,2.46a4,4,0,0,1-2,4.08C73.7,12.49,71,9.76,71,9.76A3.4,3.4,0,0,1,71.13,6.23Z"/><path class="cls-1" d="M70.51,13.78h3.31c.31-.49.61-.91.88-1.27a6.07,6.07,0,0,1-3.54-1.42A4.64,4.64,0,0,1,71,12.7S70.8,13.1,70.51,13.78Z"/><path class="cls-1" d="M88.84,15.16H84.28a5.64,5.64,0,0,1,0,.73c0,1.93,0,3.59.09,5h4.43A2.17,2.17,0,0,0,91,18.73V17.34A2.18,2.18,0,0,0,88.84,15.16Z"/><path class="cls-1" d="M9,15.16h4.56a5.7,5.7,0,0,0,0,.73c0,1.93,0,3.59-.1,5H9a2.18,2.18,0,0,1-2.18-2.18V17.34A2.19,2.19,0,0,1,9,15.16Z"/><path class="cls-1" d="M35.38,17.36l0,0a4.12,4.12,0,0,1-1.06-1.07l-.8-1.11H29.7c-.28.25-.55.53-.83.83a4.33,4.33,0,0,1-1.06.91l-1.36.72-.29-.73L23,18.31l-1.29-2.75h0l-.21-.4H18.55s-2.87.15-1.44,5.75H36.87Z"/><path class="cls-1" d="M55.17,9c-.82.57-2.08.33-6-.39-1.5-.27-3.19-.59-5-.88s-2.24-.19-2.21-.3.16.2.16.2l.56,1.8c1.74-.6,4.88-.56,10.55,1.6,0,0,.77,1.12,2.23-.18A1.68,1.68,0,0,0,55.17,9Z"/><path class="cls-2" d="M52.42,6.06S41.87.58,35.93,3.3L30,6c-.11.14-1.57,3.42-3.77,3.33a8.11,8.11,0,0,0-2.94.23L21.05,10.7s-.74.27.28,2.05c.26.46.5.89.72,1.3l2.07-1-.51-1.28L25,11.19c.78-.33,4.67-2,5.28-2.23a1.91,1.91,0,0,1,1.23,0c1.39.43,3.37,2.66,3.59,3A13.31,13.31,0,0,1,36,13.61a1.63,1.63,0,0,1-.74,2.14h0c.31.43.66.8.94.83a22.89,22.89,0,0,1,4.52-2.79,1.82,1.82,0,0,0,1-2.19L40.6,8.12s-1.51-2.74,3.79-1.9S54,8.1,54.33,7.7C55.18,6.65,52.42,6.06,52.42,6.06Z"/><path class="cls-1" d="M33.81,12.8c-.25-.36-2.41-2.59-3-2.37s-5.19,2.2-5.19,2.2l.49,1.24-3.32,1.56.64,1.37,3.27-1.46L27,16c.82-.44,2.58-3.85,6.34-2.44A5.77,5.77,0,0,1,34.7,15c.28.39,0-.31-.36-1.17A10.14,10.14,0,0,0,33.81,12.8Z"/><rect class="cls-1" x="55.62" y="26.17" width="6.83" height="1.51" rx="0.76" transform="matrix(0.99, 0.15, -0.15, 0.99, 4.62, -8.42)"/><polygon class="cls-2" points="61.57 12.43 60.86 12.32 60.21 13.62 58.47 25.3 60.07 25.54 61.81 13.86 61.57 12.43"/><polygon class="cls-1" points="58.13 20.91 58.98 15.16 57.62 15.16 44.03 15.16 46.45 20.91 57.62 20.91 58.13 20.91"/><path class="cls-1" d="M78.57,15.16h-16l-.86,5.75H80C81.43,15.31,78.57,15.16,78.57,15.16Z"/><path class="cls-1" d="M80.3,29.12,77,27.34l.46-5.81-1,.66s-.22,4.4-1.21,5.15v3.93l.6.3H67.59c-.3.72-.59,1.43-.87,2.14H80.21l.66.25V30.62Z"/><path class="cls-2" d="M82.52,15.86c0-3.15-3.6-2.66-3.6-2.66a3.4,3.4,0,0,1,1.56,1.34c.67,1,.92,1.95.92,4.47s0,9.34.93,11.55l0,3.8H15.07l0-3.74C16,28.41,16,21.52,16,19s.25-3.43.92-4.47A3.4,3.4,0,0,1,18.5,13.2s-3.65-.49-3.6,2.66C15,28.66,13,30.55,13,30.55v34.6c0,2.81,2,2.37,2,2.37H82.35s2,.44,2-2.37V30.55S82.47,28.66,82.52,15.86Z"/><path class="cls-1" d="M22.53,42a.12.12,0,0,1,0,.09v.45a.12.12,0,0,1,0,.09.17.17,0,0,1-.1,0H20.89a0,0,0,0,0,0,0v4.94a.11.11,0,0,1-.12.12h-.55a.11.11,0,0,1-.12-.12V42.65a0,0,0,0,0,0,0H18.55a.11.11,0,0,1-.12-.12V42a.12.12,0,0,1,0-.09.13.13,0,0,1,.09,0h3.88A.18.18,0,0,1,22.53,42Z"/><path class="cls-1" d="M26.8,42a.13.13,0,0,1,.09,0h.55a.18.18,0,0,1,.09,0,.12.12,0,0,1,0,.09v5.55a.12.12,0,0,1,0,.09.16.16,0,0,1-.09,0h-.55a.12.12,0,0,1-.09,0,.13.13,0,0,1,0-.09V45.18s0,0,0,0H24.38s0,0,0,0v2.41a.12.12,0,0,1,0,.09.17.17,0,0,1-.1,0h-.54a.12.12,0,0,1-.09,0,.1.1,0,0,1,0-.09V42a.1.1,0,0,1,0-.09.13.13,0,0,1,.09,0h.54a.18.18,0,0,1,.1,0,.12.12,0,0,1,0,.09v2.37s0,0,0,0h2.34s0,0,0,0V42A.13.13,0,0,1,26.8,42Z"/><path class="cls-1" d="M32.7,42.57a.12.12,0,0,1-.09,0H29.72a0,0,0,0,0,0,0v1.77s0,0,0,0h2a.12.12,0,0,1,.09,0,.13.13,0,0,1,0,.09V45a.13.13,0,0,1,0,.09.1.1,0,0,1-.09,0h-2s0,0,0,0V47s0,0,0,0h2.89a.14.14,0,0,1,.13.13v.44a.13.13,0,0,1,0,.09.12.12,0,0,1-.09,0H29a.12.12,0,0,1-.09,0,.13.13,0,0,1,0-.09V42a.14.14,0,0,1,.13-.13h3.6a.14.14,0,0,1,.13.13v.44A.13.13,0,0,1,32.7,42.57Z"/><path class="cls-1" d="M36.3,47.55a1.7,1.7,0,0,1-.71-.67,1.93,1.93,0,0,1-.25-1V43.74a1.87,1.87,0,0,1,.25-1,1.7,1.7,0,0,1,.71-.67,2.39,2.39,0,0,1,1.06-.23,2.25,2.25,0,0,1,1,.23,1.69,1.69,0,0,1,.71.64,1.85,1.85,0,0,1,.25,1s0,.09-.13.1l-.54,0h0s0,0-.06,0,0,0,0,0v0a1.13,1.13,0,0,0-.33-.85,1.18,1.18,0,0,0-.88-.32,1.2,1.2,0,0,0-.89.32,1.1,1.1,0,0,0-.34.85v2.2a1.12,1.12,0,0,0,.34.86,1.24,1.24,0,0,0,.89.32,1.22,1.22,0,0,0,.88-.32,1.15,1.15,0,0,0,.33-.86.08.08,0,0,1,0-.07s0,0,.09,0l.54,0c.09,0,.13,0,.13,0v0a1.88,1.88,0,0,1-.25,1,1.72,1.72,0,0,1-.71.65,2.44,2.44,0,0,1-2.11,0Z"/><path class="cls-1" d="M41.34,47.54a1.8,1.8,0,0,1-.72-.7,2.08,2.08,0,0,1-.26-1v-2a2.08,2.08,0,0,1,.26-1,1.71,1.71,0,0,1,.72-.69,2.41,2.41,0,0,1,2.14,0,1.71,1.71,0,0,1,.72.69,2.08,2.08,0,0,1,.26,1v2a2.08,2.08,0,0,1-.26,1,1.8,1.8,0,0,1-.72.7,2.41,2.41,0,0,1-2.14,0Zm2-.79a1.25,1.25,0,0,0,.35-.92v-2a1.26,1.26,0,0,0-.35-.93,1.21,1.21,0,0,0-.91-.35,1.19,1.19,0,0,0-.91.35,1.25,1.25,0,0,0-.34.93v2a1.25,1.25,0,0,0,.34.92,1.23,1.23,0,0,0,.91.35A1.24,1.24,0,0,0,43.32,46.75Z"/><path class="cls-1" d="M45.71,47.68a.12.12,0,0,1,0-.09V42a.12.12,0,0,1,0-.09.13.13,0,0,1,.09,0h.56a.18.18,0,0,1,.15.09l1.39,2.22s0,0,.05,0L49.35,42a.16.16,0,0,1,.15-.09h.55a.13.13,0,0,1,.09,0,.12.12,0,0,1,0,.09v5.55a.11.11,0,0,1-.12.12H49.5a.11.11,0,0,1-.12-.12V43.38a.05.05,0,0,0,0,0l0,0L48.2,45.2a.16.16,0,0,1-.15.09h-.26a.16.16,0,0,1-.15-.09l-1.12-1.84,0,0a.05.05,0,0,0,0,0v4.21a.11.11,0,0,1-.12.12H45.8A.12.12,0,0,1,45.71,47.68Z"/><path class="cls-1" d="M51.57,47.68a.12.12,0,0,1,0-.09V42a.12.12,0,0,1,0-.09.18.18,0,0,1,.09,0h.56a.16.16,0,0,1,.15.09l1.39,2.22s0,0,.05,0L55.21,42a.16.16,0,0,1,.15-.09h.55A.13.13,0,0,1,56,42,.1.1,0,0,1,56,42v5.55a.1.1,0,0,1,0,.09.12.12,0,0,1-.09,0h-.54a.17.17,0,0,1-.1,0,.12.12,0,0,1,0-.09V43.38s0,0,0,0l0,0L54.07,45.2a.18.18,0,0,1-.15.09h-.27a.18.18,0,0,1-.15-.09l-1.12-1.84,0,0s0,0,0,0v4.21a.13.13,0,0,1,0,.09.12.12,0,0,1-.09,0h-.55A.16.16,0,0,1,51.57,47.68Z"/><path class="cls-1" d="M58.31,47.54a1.73,1.73,0,0,1-.72-.67,1.93,1.93,0,0,1-.25-1V42a.12.12,0,0,1,0-.09.13.13,0,0,1,.09,0H58a.13.13,0,0,1,.09,0,.12.12,0,0,1,0,.09v3.85a1.15,1.15,0,0,0,.35.87,1.21,1.21,0,0,0,.89.33,1.25,1.25,0,0,0,.9-.33,1.18,1.18,0,0,0,.34-.87V42a.12.12,0,0,1,0-.09.13.13,0,0,1,.09,0h.55a.13.13,0,0,1,.09,0,.12.12,0,0,1,0,.09v3.83a1.93,1.93,0,0,1-.25,1,1.76,1.76,0,0,1-.71.67,2.48,2.48,0,0,1-2.13,0Z"/><path class="cls-1" d="M62.74,47.68a.1.1,0,0,1,0-.09V42a.1.1,0,0,1,0-.09.13.13,0,0,1,.09,0h.53a.18.18,0,0,1,.15.09L66,46.1l0,0a.05.05,0,0,0,0,0V42a.12.12,0,0,1,0-.09.13.13,0,0,1,.09,0h.55a.13.13,0,0,1,.09,0,.12.12,0,0,1,0,.09v5.55a.11.11,0,0,1-.12.12h-.54a.19.19,0,0,1-.15-.08L63.54,43.5l0,0s0,0,0,0v4.07a.1.1,0,0,1,0,.09.12.12,0,0,1-.09,0h-.54A.12.12,0,0,1,62.74,47.68Z"/><path class="cls-1" d="M68.27,47.68a.1.1,0,0,1,0-.09V42a.1.1,0,0,1,0-.09.13.13,0,0,1,.09,0h.54a.18.18,0,0,1,.1,0A.12.12,0,0,1,69,42v5.55a.12.12,0,0,1,0,.09.17.17,0,0,1-.1,0h-.54A.12.12,0,0,1,68.27,47.68Z"/><path class="cls-1" d="M74.12,42a.12.12,0,0,1,0,.09v.45a.11.11,0,0,1-.12.12H72.49s0,0,0,0v4.94a.12.12,0,0,1,0,.09.17.17,0,0,1-.1,0h-.54a.12.12,0,0,1-.09,0,.1.1,0,0,1,0-.09V42.65s0,0,0,0H70.15a.12.12,0,0,1-.09,0,.1.1,0,0,1,0-.09V42a.1.1,0,0,1,0-.09.13.13,0,0,1,.09,0H74A.13.13,0,0,1,74.12,42Z"/><path class="cls-1" d="M76.51,47.67a.12.12,0,0,1,0-.09V45.29s0,0,0,0l-1.68-3.18a.1.1,0,0,1,0-.05c0-.06,0-.1.11-.1h.58a.15.15,0,0,1,.15.1l1.25,2.37s0,0,.05,0L78.15,42a.19.19,0,0,1,.15-.1h.6c.07,0,.1,0,.1.09l0,.06-1.69,3.18a.13.13,0,0,0,0,0v2.29a.1.1,0,0,1,0,.09.12.12,0,0,1-.09,0h-.54A.17.17,0,0,1,76.51,47.67Z"/><path class="cls-1" d="M24.63,50.86v2.59h-.85l-.19-.23a2.43,2.43,0,0,0-.25-.2,1.08,1.08,0,0,0-.3-.16,1,1,0,0,0-.35,0v3.5l.65.12v2.2H18.81v-2.2l.65-.12v-3.5a1,1,0,0,0-.35,0,1.08,1.08,0,0,0-.3.16,2.43,2.43,0,0,0-.25.2l-.19.23h-.85V50.86Z"/><path class="cls-1" d="M29.61,58.72a9.14,9.14,0,0,1-1.19-.08,4.29,4.29,0,0,1-1.08-.28,4.09,4.09,0,0,1-.91-.53,3.2,3.2,0,0,1-.72-.79,3.88,3.88,0,0,1-.46-1,5,5,0,0,1-.16-1.33,4.43,4.43,0,0,1,.16-1.26,3.66,3.66,0,0,1,.45-1,3.38,3.38,0,0,1,.71-.75,3.68,3.68,0,0,1,.91-.51,6,6,0,0,1,1.09-.3,7.69,7.69,0,0,1,1.2-.09,7.92,7.92,0,0,1,1.21.09,6,6,0,0,1,1.09.3,4.06,4.06,0,0,1,.91.52,3.16,3.16,0,0,1,.71.75,3.45,3.45,0,0,1,.45,1,4.92,4.92,0,0,1-.19,3.13,3.44,3.44,0,0,1-1,1.27,3.74,3.74,0,0,1-1.44.71A7.16,7.16,0,0,1,29.61,58.72Zm0-5.66a1.71,1.71,0,0,0-.54.08,1.21,1.21,0,0,0-.37.22,1.34,1.34,0,0,0-.22.31,2,2,0,0,0-.11.35,2.09,2.09,0,0,0,0,.34c0,.11,0,.21,0,.3s0,.18,0,.29a2,2,0,0,0,0,.34,2.47,2.47,0,0,0,.11.36,1.4,1.4,0,0,0,.22.32,1.21,1.21,0,0,0,.37.22,1.45,1.45,0,0,0,.54.09,1.47,1.47,0,0,0,.55-.09,1.28,1.28,0,0,0,.36-.22,1.18,1.18,0,0,0,.23-.32,1.65,1.65,0,0,0,.11-.36,2,2,0,0,0,0-.34c0-.11,0-.21,0-.29s0-.19,0-.3a2.09,2.09,0,0,0,0-.34,1.42,1.42,0,0,0-.11-.35,1.14,1.14,0,0,0-.23-.31,1.28,1.28,0,0,0-.36-.22A1.73,1.73,0,0,0,29.61,53.06Z"/><path class="cls-1" d="M39.32,58.72a9.14,9.14,0,0,1-1.19-.08,4.06,4.06,0,0,1-2-.81,3.37,3.37,0,0,1-.71-.79A3.59,3.59,0,0,1,35,56a4.93,4.93,0,0,1-.17-1.33A4.82,4.82,0,0,1,35,53.4a3.4,3.4,0,0,1,.46-1,3.12,3.12,0,0,1,.7-.75,3.74,3.74,0,0,1,.92-.51,5.89,5.89,0,0,1,1.08-.3,7.92,7.92,0,0,1,1.21-.09,7.79,7.79,0,0,1,1.2.09,6,6,0,0,1,1.09.3,4.13,4.13,0,0,1,.92.52,3.12,3.12,0,0,1,.7.75,3.46,3.46,0,0,1,.46,1,5,5,0,0,1-.2,3.13,3.34,3.34,0,0,1-1,1.27,3.74,3.74,0,0,1-1.44.71A7.13,7.13,0,0,1,39.32,58.72Zm0-5.66a1.73,1.73,0,0,0-.55.08,1.28,1.28,0,0,0-.36.22.93.93,0,0,0-.22.31,1.42,1.42,0,0,0-.11.35,2.15,2.15,0,0,0,0,.34V55a2,2,0,0,0,0,.34,1.65,1.65,0,0,0,.11.36,1,1,0,0,0,.22.32,1.28,1.28,0,0,0,.36.22,1.47,1.47,0,0,0,.55.09,1.45,1.45,0,0,0,.54-.09,1.21,1.21,0,0,0,.37-.22,1.14,1.14,0,0,0,.22-.32,2.53,2.53,0,0,0,.12-.36c0-.11,0-.23,0-.34s0-.21,0-.29,0-.19,0-.3,0-.22,0-.34a2.06,2.06,0,0,0-.12-.35,1.1,1.1,0,0,0-.22-.31,1.21,1.21,0,0,0-.37-.22A1.71,1.71,0,0,0,39.32,53.06Z"/><path class="cls-1" d="M48.5,56.69a1.76,1.76,0,0,0,.46-.06,2.26,2.26,0,0,0,.39-.15,1.85,1.85,0,0,0,.33-.21,1.47,1.47,0,0,0,.26-.23h.85v2.59H44.62v-2.2l.65-.12V53.18l-.65-.12v-2.2h4.53v2.2l-.65.12Z"/><path class="cls-1" d="M57.89,50.86a2.23,2.23,0,0,1,1.19.64,1.7,1.7,0,0,1,.39,1.18,2.78,2.78,0,0,1-.11.83,2.24,2.24,0,0,1-.26.56,1.23,1.23,0,0,1-.36.33,1.67,1.67,0,0,1-.35.18,1.2,1.2,0,0,1-.27.07H58a3.29,3.29,0,0,1,.42,0,2.46,2.46,0,0,1,.45.11,2,2,0,0,1,.42.2,1.31,1.31,0,0,1,.36.3,1.37,1.37,0,0,1,.24.43,1.61,1.61,0,0,1,.1.57,3.41,3.41,0,0,1-.13.92,1.69,1.69,0,0,1-.43.73,2.12,2.12,0,0,1-.85.49,4.32,4.32,0,0,1-1.35.18H51.36v-2.2l.64-.12V53l-.64-.13v-2Zm-1.14,2.49a.76.76,0,0,0-.09-.4.55.55,0,0,0-.23-.2,1.13,1.13,0,0,0-.34-.08h-.85v1.45h.85a.89.89,0,0,0,.34-.08.56.56,0,0,0,.23-.23A.88.88,0,0,0,56.75,53.35Zm0,2.52a.7.7,0,0,0-.09-.39.55.55,0,0,0-.23-.2.89.89,0,0,0-.34-.08h-.85v1.45h.85a1.13,1.13,0,0,0,.34-.08.63.63,0,0,0,.23-.23A.92.92,0,0,0,56.75,55.87Z"/><path class="cls-1" d="M65.07,58.72a9.3,9.3,0,0,1-1.2-.08,4.11,4.11,0,0,1-1.07-.28,4.16,4.16,0,0,1-.92-.53,3.16,3.16,0,0,1-.71-.79,3.35,3.35,0,0,1-.46-1,4.93,4.93,0,0,1-.17-1.33,4.82,4.82,0,0,1,.16-1.26,3.4,3.4,0,0,1,.46-1,3.12,3.12,0,0,1,.7-.75,3.74,3.74,0,0,1,.92-.51,5.68,5.68,0,0,1,1.08-.3,7.92,7.92,0,0,1,1.21-.09,7.79,7.79,0,0,1,1.2.09,6,6,0,0,1,1.09.3,4.13,4.13,0,0,1,.92.52,3.12,3.12,0,0,1,.7.75,3.46,3.46,0,0,1,.46,1,5,5,0,0,1-.2,3.13,3.34,3.34,0,0,1-1,1.27,3.74,3.74,0,0,1-1.44.71A7.13,7.13,0,0,1,65.07,58.72Zm0-5.66a1.73,1.73,0,0,0-.55.08,1.16,1.16,0,0,0-.36.22.93.93,0,0,0-.22.31,2.06,2.06,0,0,0-.12.35,2.09,2.09,0,0,0,0,.34V55a2,2,0,0,0,0,.34,2.53,2.53,0,0,0,.12.36,1,1,0,0,0,.22.32,1.16,1.16,0,0,0,.36.22,1.47,1.47,0,0,0,.55.09,1.45,1.45,0,0,0,.54-.09A1,1,0,0,0,66,56a1,1,0,0,0,.23-.32,1.65,1.65,0,0,0,.11-.36,2,2,0,0,0,0-.34v-.59a2.15,2.15,0,0,0,0-.34,1.42,1.42,0,0,0-.11-.35,1,1,0,0,0-.23-.31,1,1,0,0,0-.36-.22A1.71,1.71,0,0,0,65.07,53.06Z"/><path class="cls-1" d="M79.15,56.31l.77.12v2.2H74.79v-2.2l.56-.12-1.18-.9-1,.9,1,.12v2.2h-3.9v-2.2l.76-.12,1.86-1.66-1.81-1.47-.92-.12v-2.2h4.94v2.2l-.55.12,1.31,1,.87-1-.94-.12v-2.2h3.89v2.2l-.92.12-1.51,1.57Z"/><polygon class="cls-1" points="51.73 33.71 54.62 33.71 54.91 31.57 50.82 31.57 51.73 33.71"/><path class="cls-1" d="M41.24,31.57H21.3l.61-.3V27.34c-1-.75-1.21-5.15-1.21-5.15l-1-.66.45,5.81-3.27,1.78-.57,1.5V34l.66-.25h25.2Z"/></svg>