<svg id="Layer_2" data-name="Layer 2" xmlns="http://www.w3.org/2000/svg" viewBox="0 0 99.55 70"><defs><style>.cls-1{fill:#f6f3e9;}</style></defs><title>WHITE</title><path class="cls-1" d="M50.79,35.74,42,14.74A21,21,0,0,0,37,17.64l-.34.28,7.5,17.82Z"/><polygon class="cls-1" points="60.17 35.74 61.13 28.59 56.25 27.87 55.19 35.74 60.17 35.74"/><path class="cls-1" d="M64.27,35.74c1.57-4.31,3.94-9.63,5.69-13.6H66.85c-2.1,5.08-4.5,10.84-5.66,13.6Z"/><path class="cls-1" d="M71,6.08l1.21-1.79s.63-.45.47.76-.86,2.84.59,3.14a5.82,5.82,0,0,0,2.36.09,29.88,29.88,0,0,0,1-3.64c0-.75.91,1.27.94,2.45a4,4,0,0,1-2,4.09c-2,1.16-4.74-1.58-4.74-1.58A3.39,3.39,0,0,1,71,6.08Z"/><path class="cls-1" d="M70.38,13.63h3.31c.31-.49.61-.92.88-1.27A6.1,6.1,0,0,1,71,10.94a4.88,4.88,0,0,1-.19,1.61S70.66,12.94,70.38,13.63Z"/><path class="cls-1" d="M88.71,15H84.14a4.29,4.29,0,0,1,0,.73c0,1.93,0,3.59.1,5h4.43a2.19,2.19,0,0,0,2.18-2.18V17.19A2.19,2.19,0,0,0,88.71,15Z"/><path class="cls-1" d="M8.83,15h4.56a5.64,5.64,0,0,0,0,.73c0,1.93,0,3.59-.1,5H8.83a2.18,2.18,0,0,1-2.18-2.18V17.19A2.18,2.18,0,0,1,8.83,15Z"/><path class="cls-1" d="M35.25,17.21l0,0a4,4,0,0,1-1.06-1.08l-.8-1.1H29.57a10.7,10.7,0,0,0-.84.82,4.36,4.36,0,0,1-1.05.92l-1.36.72L26,16.74l-3.19,1.42L21.55,15.4h0l-.21-.4H18.42s-2.87.14-1.44,5.75H36.74Z"/><path class="cls-1" d="M55,8.87c-.82.57-2.08.34-6-.38-1.49-.28-3.19-.59-5-.88s-2.24-.19-2.2-.3.15.19.15.19l.56,1.81c1.75-.6,4.89-.56,10.55,1.59,0,0,.78,1.13,2.24-.17A1.7,1.7,0,0,0,55,8.87Z"/><path class="cls-1" d="M52.28,5.91S41.73.43,35.8,3.15L29.87,5.86C29.76,6,28.3,9.28,26.1,9.2a7.85,7.85,0,0,0-3,.23l-2.24,1.12s-.73.27.29,2c.26.45.5.89.72,1.3l2.07-1-.51-1.29,1.39-.6c.77-.33,4.67-2,5.27-2.24a2,2,0,0,1,1.24,0c1.39.43,3.37,2.66,3.59,3a13.31,13.31,0,0,1,.88,1.68,1.63,1.63,0,0,1-.74,2.14h0c.31.42.65.8.94.83a23.31,23.31,0,0,1,4.51-2.8,1.79,1.79,0,0,0,1-2.18L40.47,8S39,5.22,44.26,6.06,53.82,8,54.2,7.54C55.05,6.49,52.28,5.91,52.28,5.91Z"/><path class="cls-1" d="M33.67,12.65c-.24-.36-2.41-2.59-3-2.38s-5.18,2.21-5.18,2.21L26,13.72l-3.32,1.56.63,1.36,3.27-1.45.25.63c.82-.43,2.59-3.84,6.34-2.43a5.44,5.44,0,0,1,1.41,1.42c.29.39.06-.31-.35-1.17A9.88,9.88,0,0,0,33.67,12.65Z"/><rect class="cls-1" x="55.49" y="26.01" width="6.83" height="1.51" rx="0.76" transform="translate(4.6 -8.4) rotate(8.49)"/><polygon class="cls-1" points="61.44 12.27 60.72 12.16 60.08 13.47 58.33 25.15 59.93 25.39 61.67 13.71 61.44 12.27"/><polygon class="cls-1" points="57.99 20.76 58.85 15.01 57.48 15.01 43.9 15.01 46.32 20.76 57.48 20.76 57.99 20.76"/><path class="cls-1" d="M78.43,15h-16l-.85,5.75H79.87C81.3,15.15,78.43,15,78.43,15Z"/><path class="cls-1" d="M80.16,29l-3.27-1.78.45-5.81-1,.66s-.22,4.4-1.22,5.15v3.93l.61.29H67.45c-.29.72-.59,1.44-.87,2.15h13.5l.65.24V30.47Z"/><path class="cls-1" d="M56.29,52.6a.84.84,0,0,0-.33-.08h-.85V54H56a.85.85,0,0,0,.33-.09.51.51,0,0,0,.24-.22.88.88,0,0,0,.09-.44.74.74,0,0,0-.09-.4A.52.52,0,0,0,56.29,52.6Z"/><path class="cls-1" d="M66.18,53.86a1.5,1.5,0,0,0-.11-.34,1,1,0,0,0-.23-.31,1,1,0,0,0-.37-.22,1.38,1.38,0,0,0-.54-.09,1.42,1.42,0,0,0-.54.09,1,1,0,0,0-.37.22,1,1,0,0,0-.22.31,2.24,2.24,0,0,0-.11.34,2.21,2.21,0,0,0,0,.35c0,.11,0,.21,0,.29s0,.18,0,.29a2.09,2.09,0,0,0,0,.35,2.47,2.47,0,0,0,.11.36,1,1,0,0,0,.22.31,1.06,1.06,0,0,0,.37.23,1.43,1.43,0,0,0,.54.08,1.4,1.4,0,0,0,.54-.08,1.06,1.06,0,0,0,.37-.23,1,1,0,0,0,.23-.31,1.65,1.65,0,0,0,.11-.36,2.09,2.09,0,0,0,0-.35c0-.11,0-.2,0-.29s0-.18,0-.29A2.21,2.21,0,0,0,66.18,53.86Z"/><path class="cls-1" d="M40.43,53.86a1.5,1.5,0,0,0-.11-.34.87.87,0,0,0-.23-.31,1.09,1.09,0,0,0-.36-.22,1.47,1.47,0,0,0-.55-.09,1.45,1.45,0,0,0-.54.09.92.92,0,0,0-.36.22.84.84,0,0,0-.22.31,2.3,2.3,0,0,0-.12.34,2.21,2.21,0,0,0,0,.35c0,.11,0,.21,0,.29s0,.18,0,.29a2.09,2.09,0,0,0,0,.35,2.53,2.53,0,0,0,.12.36.84.84,0,0,0,.22.31.93.93,0,0,0,.36.23,1.46,1.46,0,0,0,.54.08,1.49,1.49,0,0,0,.55-.08,1.11,1.11,0,0,0,.36-.23.87.87,0,0,0,.23-.31,1.65,1.65,0,0,0,.11-.36,2.09,2.09,0,0,0,0-.35c0-.11,0-.2,0-.29s0-.18,0-.29A2.21,2.21,0,0,0,40.43,53.86Z"/><path class="cls-1" d="M56.29,55.12a.84.84,0,0,0-.33-.07h-.85v1.45H56a.85.85,0,0,0,.33-.09.48.48,0,0,0,.24-.23.88.88,0,0,0,.09-.44.7.7,0,0,0-.09-.39A.54.54,0,0,0,56.29,55.12Z"/><path class="cls-1" d="M82.38,15.7c.06-3.14-3.6-2.65-3.6-2.65a3.29,3.29,0,0,1,1.56,1.33c.68,1,.92,2,.93,4.47s0,9.35.93,11.55l0,3.81H14.93l0-3.75c.93-2.2.92-9.09.92-11.61s.25-3.43.93-4.47a3.29,3.29,0,0,1,1.56-1.33s-3.66-.49-3.6,2.65c0,12.81-1.87,14.7-1.87,14.7V65c0,2.81,2,2.37,2,2.37H82.22s2,.44,2-2.37V30.4S82.34,28.51,82.38,15.7ZM74.73,41.76h.59a.16.16,0,0,1,.15.09l1.25,2.38s0,0,0,0L78,41.85a.16.16,0,0,1,.15-.09h.6c.06,0,.09,0,.09.08v.07l-1.69,3.18,0,0v2.29a.16.16,0,0,1,0,.09.12.12,0,0,1-.09,0h-.55a.12.12,0,0,1-.09,0,.16.16,0,0,1,0-.09V45.14l0,0-1.69-3.18,0-.06C74.62,41.79,74.66,41.76,74.73,41.76Zm-6.63.13a.17.17,0,0,1,0-.1l.09,0h.55a.12.12,0,0,1,.09,0,.17.17,0,0,1,0,.1v5.54a.12.12,0,0,1,0,.09.1.1,0,0,1-.09,0h-.55a.12.12,0,0,1-.12-.13Zm-5.53,0a.17.17,0,0,1,0-.1.12.12,0,0,1,.09,0h.53a.16.16,0,0,1,.15.08l2.54,4.1s0,0,0,0,0,0,0,0v-4a.17.17,0,0,1,0-.1.12.12,0,0,1,.09,0h.55l.09,0a.17.17,0,0,1,0,.1v5.54a.12.12,0,0,1-.12.13h-.54a.16.16,0,0,1-.15-.08L63.4,43.35s0,0,0,0,0,0,0,0v4.06a.12.12,0,0,1,0,.09.1.1,0,0,1-.09,0h-.55a.1.1,0,0,1-.09,0,.12.12,0,0,1,0-.09Zm-11.16,0a.17.17,0,0,1,0-.1.12.12,0,0,1,.09,0h.56a.16.16,0,0,1,.14.08l1.4,2.22s0,0,0,0l1.39-2.22a.19.19,0,0,1,.15-.08h.56a.12.12,0,0,1,.09,0,.17.17,0,0,1,0,.1v5.54a.12.12,0,0,1,0,.09.1.1,0,0,1-.09,0h-.55a.1.1,0,0,1-.09,0,.12.12,0,0,1,0-.09v-4.2s0,0,0,0,0,0,0,0l-1.13,1.84a.16.16,0,0,1-.15.08h-.26a.16.16,0,0,1-.15-.08l-1.12-1.84s0,0,0,0,0,0,0,0v4.2a.12.12,0,0,1,0,.09.1.1,0,0,1-.09,0h-.55a.1.1,0,0,1-.09,0,.12.12,0,0,1,0-.09Zm-5.87,0a.13.13,0,0,1,0-.1.12.12,0,0,1,.09,0h.55a.16.16,0,0,1,.15.08l1.39,2.22s0,0,.05,0l1.4-2.22a.18.18,0,0,1,.15-.08h.56l.09,0a.17.17,0,0,1,0,.1v5.54a.12.12,0,0,1-.12.13h-.55a.1.1,0,0,1-.09,0,.12.12,0,0,1,0-.09v-4.2s0,0,0,0,0,0,0,0l-1.13,1.84a.16.16,0,0,1-.15.08h-.26a.16.16,0,0,1-.15-.08l-1.12-1.84s0,0,0,0,0,0,0,0v4.2a.12.12,0,0,1,0,.09.13.13,0,0,1-.1,0h-.54a.14.14,0,0,1-.13-.13ZM35.2,43.58a2,2,0,0,1,.25-1,1.77,1.77,0,0,1,.72-.66,2.2,2.2,0,0,1,1-.23,2.32,2.32,0,0,1,1.05.22,1.7,1.7,0,0,1,.71.64,1.82,1.82,0,0,1,.25,1s0,.08-.12.09l-.55,0h0l-.07,0,0,0v0a1.13,1.13,0,0,0-.33-.85,1.21,1.21,0,0,0-.89-.33,1.22,1.22,0,0,0-.89.33,1.13,1.13,0,0,0-.33.85v2.2a1.13,1.13,0,0,0,.33.85,1.22,1.22,0,0,0,.89.33,1.21,1.21,0,0,0,.89-.33,1.13,1.13,0,0,0,.33-.85.08.08,0,0,1,0-.07.09.09,0,0,1,.09,0l.55,0c.08,0,.12,0,.12,0v0a1.81,1.81,0,0,1-.25,1,1.66,1.66,0,0,1-.71.65,2.2,2.2,0,0,1-1.05.23,2.32,2.32,0,0,1-1-.23,1.73,1.73,0,0,1-.72-.67,2.06,2.06,0,0,1-.25-1Zm-6.45-1.69a.11.11,0,0,1,.13-.13h3.6a.12.12,0,0,1,.09,0,.17.17,0,0,1,0,.1v.43a.17.17,0,0,1,0,.1.12.12,0,0,1-.09,0H29.59s0,0,0,0v1.76s0,0,0,0h2a.11.11,0,0,1,.12.12v.44a.11.11,0,0,1-.12.12h-2a0,0,0,0,0,0,0v1.81s0,0,0,0h2.89a.12.12,0,0,1,.09,0,.16.16,0,0,1,0,.09v.44a.12.12,0,0,1,0,.09.1.1,0,0,1-.09,0h-3.6a.13.13,0,0,1-.1,0,.12.12,0,0,1,0-.09Zm-5.34,0a.17.17,0,0,1,0-.1.14.14,0,0,1,.09,0h.55a.12.12,0,0,1,.09,0,.17.17,0,0,1,0,.1v2.36a0,0,0,0,0,.05,0h2.34s0,0,0,0V41.89a.11.11,0,0,1,.13-.13h.54a.12.12,0,0,1,.09,0,.18.18,0,0,1,0,.1v5.54a.13.13,0,0,1,0,.09.1.1,0,0,1-.09,0h-.54a.13.13,0,0,1-.1,0,.12.12,0,0,1,0-.09V45a0,0,0,0,0,0,0H24.25a0,0,0,0,0-.05,0v2.41a.12.12,0,0,1,0,.09.1.1,0,0,1-.09,0h-.55a.11.11,0,0,1-.09,0,.12.12,0,0,1,0-.09Zm-5.12,0a.13.13,0,0,1,0-.1.12.12,0,0,1,.09,0H22.3a.12.12,0,0,1,.09,0,.17.17,0,0,1,0,.1v.44a.12.12,0,0,1,0,.09.1.1,0,0,1-.09,0H20.76s0,0,0,0v4.93a.12.12,0,0,1,0,.09.13.13,0,0,1-.1,0h-.54a.14.14,0,0,1-.13-.13V42.5s0,0,0,0H18.42a.14.14,0,0,1-.13-.13ZM24.5,53.3h-.85a2.05,2.05,0,0,0-.2-.23,1.21,1.21,0,0,0-.24-.21,2.1,2.1,0,0,0-.3-.15,1,1,0,0,0-.35-.06v3.5l.65.13v2.19H18.68V56.28l.64-.13v-3.5a1,1,0,0,0-.35.06,1.59,1.59,0,0,0-.29.15,1.27,1.27,0,0,0-.25.21,2.05,2.05,0,0,0-.2.23h-.85V50.71H24.5Zm9.16,3.07a3.42,3.42,0,0,1-1,1.28,3.74,3.74,0,0,1-1.44.71,7.13,7.13,0,0,1-1.76.21,9.14,9.14,0,0,1-1.19-.08,4.29,4.29,0,0,1-1.08-.28,4,4,0,0,1-.92-.54,3.14,3.14,0,0,1-.71-.78,3.71,3.71,0,0,1-.46-1A5,5,0,0,1,25,54.5a4.52,4.52,0,0,1,.17-1.26,3.45,3.45,0,0,1,.45-1,3.16,3.16,0,0,1,.71-.75,3.68,3.68,0,0,1,.91-.51,4.79,4.79,0,0,1,1.08-.3,7.37,7.37,0,0,1,2.42,0,4.64,4.64,0,0,1,1.08.3,3.89,3.89,0,0,1,.92.51,3.38,3.38,0,0,1,.71.75,3.66,3.66,0,0,1,.45,1A4.41,4.41,0,0,1,34,54.5,4.59,4.59,0,0,1,33.66,56.37Zm9.7,0a3.4,3.4,0,0,1-1,1.28,3.74,3.74,0,0,1-1.44.71,7.16,7.16,0,0,1-1.77.21A9.14,9.14,0,0,1,38,58.49a4.11,4.11,0,0,1-1.07-.28,3.65,3.65,0,0,1-.92-.54,2.79,2.79,0,0,1-.71-.78,3.73,3.73,0,0,1-.47-1,5,5,0,0,1-.16-1.34,4.53,4.53,0,0,1,.16-1.26,3.46,3.46,0,0,1,.46-1,3.12,3.12,0,0,1,.7-.75A3.74,3.74,0,0,1,36.9,51a4.51,4.51,0,0,1,1.08-.3,7.67,7.67,0,0,1,1.2-.1,7.9,7.9,0,0,1,1.21.1,4.73,4.73,0,0,1,1.09.3,4.33,4.33,0,0,1,.92.51,3.34,3.34,0,0,1,.7.75,3.4,3.4,0,0,1,.46,1,4.8,4.8,0,0,1,.16,1.25A4.42,4.42,0,0,1,43.36,56.37Zm1-10.72a2,2,0,0,1-.26,1,1.68,1.68,0,0,1-.72.7,2.44,2.44,0,0,1-2.15,0,1.79,1.79,0,0,1-.72-.7,2,2,0,0,1-.25-1v-2a2,2,0,0,1,.25-1,1.93,1.93,0,0,1,.72-.7,2.53,2.53,0,0,1,2.15,0,1.8,1.8,0,0,1,.72.7,2,2,0,0,1,.26,1Zm6.32,12.82H44.49V56.28l.64-.13V53l-.64-.13V50.71H49V52.9l-.64.13v3.5a2.14,2.14,0,0,0,.45-.05,2.74,2.74,0,0,0,.4-.15,1.85,1.85,0,0,0,.33-.21l.26-.23h.84Zm9.08-1.4a1.74,1.74,0,0,1-.44.74,2.08,2.08,0,0,1-.84.49,4.38,4.38,0,0,1-1.36.17H51.22V56.28l.65-.13V52.84l-.65-.12v-2h6.53a2.25,2.25,0,0,1,1.19.63,1.7,1.7,0,0,1,.4,1.19,2.83,2.83,0,0,1-.11.83,1.76,1.76,0,0,1-.27.55,1.25,1.25,0,0,1-.35.34,2,2,0,0,1-.35.18l-.28.06h-.12a3.34,3.34,0,0,1,.43,0,2.18,2.18,0,0,1,.44.11,1.86,1.86,0,0,1,.43.2,1.69,1.69,0,0,1,.36.3,1.44,1.44,0,0,1,.24.42,1.7,1.7,0,0,1,.09.57A3.31,3.31,0,0,1,59.73,57.07Zm-.49-9.45a2.24,2.24,0,0,1-1.06-.23,1.73,1.73,0,0,1-.72-.67,1.93,1.93,0,0,1-.26-1V41.89a.13.13,0,0,1,0-.1.12.12,0,0,1,.09,0h.54a.12.12,0,0,1,.09,0,.13.13,0,0,1,0,.1v3.85a1.16,1.16,0,0,0,.34.87,1.25,1.25,0,0,0,.9.33,1.21,1.21,0,0,0,.89-.33,1.16,1.16,0,0,0,.34-.87V41.89a.13.13,0,0,1,0-.1.12.12,0,0,1,.09,0h.54a.11.11,0,0,1,.13.13v3.83a2,2,0,0,1-.25,1,1.73,1.73,0,0,1-.72.67A2.24,2.24,0,0,1,59.24,47.62Zm9.87,8.75a3.4,3.4,0,0,1-1,1.28,3.89,3.89,0,0,1-1.44.71,7.16,7.16,0,0,1-1.77.21,9.14,9.14,0,0,1-1.19-.08,4.29,4.29,0,0,1-1.08-.28,3.77,3.77,0,0,1-.91-.54,3,3,0,0,1-.72-.78,4,4,0,0,1-.46-1,5,5,0,0,1-.16-1.34,4.53,4.53,0,0,1,.16-1.26,3.74,3.74,0,0,1,.45-1,3.16,3.16,0,0,1,.71-.75,3.68,3.68,0,0,1,.91-.51,4.73,4.73,0,0,1,1.09-.3,7.67,7.67,0,0,1,1.2-.1,7.9,7.9,0,0,1,1.21.1,4.73,4.73,0,0,1,1.09.3,4,4,0,0,1,.91.51,3.16,3.16,0,0,1,.71.75,3.39,3.39,0,0,1,.45,1,4.89,4.89,0,0,1-.19,3.12Zm.78-14v-.44a.17.17,0,0,1,0-.1.12.12,0,0,1,.09,0H73.9a.14.14,0,0,1,.09,0,.17.17,0,0,1,0,.1v.44a.12.12,0,0,1,0,.09.11.11,0,0,1-.09,0H72.36s0,0,0,0v4.93a.12.12,0,0,1,0,.09.1.1,0,0,1-.09,0h-.55a.11.11,0,0,1-.09,0,.12.12,0,0,1,0-.09V42.5s0,0,0,0H70a.1.1,0,0,1-.09,0A.12.12,0,0,1,69.89,42.33Zm9.89,16.14H74.66V56.28l.55-.12L74,55.26l-1,.9,1,.12v2.19H70.11V56.28l.77-.12,1.86-1.67L70.93,53,70,52.9V50.71H75V52.9l-.56.13L75.7,54l.88-.95-1-.13V50.71h3.89V52.9l-.91.13L77.1,54.59,79,56.16l.77.12Z"/><path class="cls-1" d="M42.27,42.38a1.22,1.22,0,0,0-.9.35,1.3,1.3,0,0,0-.35.94v2a1.25,1.25,0,0,0,.35.92,1.26,1.26,0,0,0,2.16-.92v-2a1.26,1.26,0,0,0-.35-.94A1.23,1.23,0,0,0,42.27,42.38Z"/><path class="cls-1" d="M30.73,53.86a2.3,2.3,0,0,0-.12-.34.84.84,0,0,0-.22-.31A1,1,0,0,0,30,53a1.45,1.45,0,0,0-.54-.09,1.47,1.47,0,0,0-.55.09,1.09,1.09,0,0,0-.36.22.84.84,0,0,0-.22.31,1.5,1.5,0,0,0-.11.34,2.27,2.27,0,0,0,0,.35v.58a2.11,2.11,0,0,0,0,.35,1.65,1.65,0,0,0,.11.36.84.84,0,0,0,.22.31,1.11,1.11,0,0,0,.36.23,1.49,1.49,0,0,0,.55.08A1.46,1.46,0,0,0,30,56a1.06,1.06,0,0,0,.37-.23.84.84,0,0,0,.22-.31,2.53,2.53,0,0,0,.12-.36c0-.12,0-.23,0-.35s0-.2,0-.29,0-.18,0-.29S30.75,54,30.73,53.86Z"/><polygon class="cls-1" points="51.59 33.56 54.49 33.56 54.78 31.41 50.69 31.41 51.59 33.56"/><path class="cls-1" d="M41.11,31.41H21.17l.61-.29V27.19c-1-.75-1.21-5.15-1.21-5.15l-1-.66L20,27.19,16.73,29l-.57,1.5V33.8l.65-.24H42Z"/></svg>