<?xml version="1.0" standalone="no"?>
<!DOCTYPE svg PUBLIC "-//W3C//DTD SVG 20010904//EN"
 "http://www.w3.org/TR/2001/REC-SVG-20010904/DTD/svg10.dtd">
<svg version="1.0" xmlns="http://www.w3.org/2000/svg"
 width="800.000000pt" height="800.000000pt" viewBox="0 0 800.000000 800.000000"
 preserveAspectRatio="xMidYMid meet">
<metadata>
Created by potrace 1.11, written by Peter Selinger 2001-2013
</metadata>
<g transform="translate(0.000000,800.000000) scale(0.100000,-0.100000)"
fill="#000000" stroke="none">
<path d="M3137 6604 c-1 -1 -24 -4 -52 -7 -82 -9 -138 -25 -215 -60 -25 -12
-47 -22 -50 -22 -3 -1 -27 -12 -55 -25 -27 -13 -117 -54 -200 -91 -82 -38
-154 -76 -160 -85 -77 -127 -138 -198 -200 -231 -20 -11 -61 -17 -129 -19 -90
-3 -125 -6 -182 -18 -28 -6 -185 -84 -206 -104 -10 -8 -18 -27 -18 -41 0 -33
94 -217 109 -213 7 1 45 18 86 38 l74 36 -19 49 c-11 27 -20 51 -20 53 0 2 21
11 48 21 26 10 76 31 112 47 36 17 70 31 75 32 6 1 33 12 60 25 28 12 59 26
70 30 11 5 52 23 92 40 91 39 126 45 172 30 102 -33 263 -183 328 -305 23 -44
44 -93 46 -111 6 -35 -22 -101 -48 -116 -21 -11 -19 -22 10 -52 29 -28 47 -31
68 -11 26 26 192 131 293 184 87 47 102 59 117 93 22 52 17 85 -43 269 -59
182 -62 208 -20 244 44 36 120 47 230 33 25 -3 65 -9 90 -12 25 -3 52 -8 60
-10 8 -3 31 -7 50 -9 19 -3 71 -12 115 -21 44 -8 94 -17 110 -19 17 -3 41 -7
55 -10 75 -15 262 -45 308 -49 38 -4 57 -1 67 10 18 18 19 40 3 57 -16 15
-122 66 -139 66 -7 0 -40 13 -73 29 -163 80 -436 178 -566 206 -125 26 -161
32 -240 41 -46 6 -209 12 -213 8z"/>
<path d="M5799 6428 c-13 -18 -26 -35 -29 -38 -12 -11 -69 -107 -83 -141 -19
-47 -15 -154 7 -199 27 -55 153 -140 246 -167 43 -13 116 -2 155 24 50 32 104
91 111 121 4 12 10 22 14 22 23 0 32 150 14 236 -11 56 -49 154 -59 154 -3 0
-26 -98 -27 -117 0 -5 -4 -15 -9 -24 -4 -9 -10 -29 -13 -44 -12 -68 -40 -125
-60 -126 -192 -12 -245 21 -232 143 8 82 17 142 22 147 6 6 -16 41 -26 41 -5
0 -19 -15 -31 -32z"/>
<path d="M3387 6188 c2 -13 8 -32 13 -43 5 -11 14 -37 20 -58 6 -20 15 -35 19
-33 35 22 215 27 330 10 93 -14 136 -22 136 -24 0 -1 7 -3 15 -5 113 -23 330
-97 368 -124 38 -26 87 -27 130 -1 39 24 56 62 48 109 -8 52 -24 63 -70 50
-60 -17 -153 -6 -541 65 -11 2 -31 7 -45 10 -14 4 -38 8 -55 10 -16 2 -41 6
-55 10 -14 3 -38 8 -55 10 -16 2 -66 9 -110 15 -168 24 -154 24 -148 -1z"/>
<path d="M2365 5926 c-55 -24 -118 -51 -140 -61 -22 -10 -44 -19 -50 -21 -5
-1 -33 -13 -62 -26 l-52 -23 19 -51 18 -52 -70 -32 c-143 -64 -198 -93 -194
-99 2 -3 13 -27 25 -53 24 -53 19 -52 114 -9 156 71 189 82 186 64 -8 -49 14
-42 79 25 133 137 243 179 387 148 11 -3 26 -5 34 -5 7 -1 42 -30 77 -66 l63
-65 -33 80 c-39 91 -73 138 -147 201 -28 24 -56 49 -63 55 -19 18 -54 34 -73
33 -10 0 -63 -20 -118 -43z"/>
<path d="M5719 5903 c-1 -65 -10 -110 -28 -149 -12 -24 -21 -46 -21 -48 0 -2
59 -4 130 -4 l131 0 28 42 c33 47 34 59 6 64 -62 9 -172 51 -202 77 -44 37
-43 37 -44 18z"/>
<path d="M4864 5768 c-14 -28 -28 -65 -30 -82 -3 -29 -13 -90 -19 -126 -2 -8
-6 -37 -10 -65 -13 -98 -20 -145 -36 -245 -6 -36 -13 -81 -15 -100 -2 -19 -6
-46 -9 -60 -2 -14 -7 -47 -11 -75 -3 -27 -8 -59 -11 -70 -4 -20 -9 -56 -17
-132 -5 -42 -4 -43 24 -43 17 0 31 0 33 1 1 0 14 -4 29 -10 32 -12 36 -8 43
45 2 21 7 50 10 64 3 14 7 48 10 75 3 28 7 57 10 65 2 8 7 38 11 65 8 66 11
87 19 137 4 24 8 54 10 68 12 87 28 188 31 205 5 20 13 87 18 136 2 14 5 30 8
35 13 23 -9 154 -25 155 -7 0 -20 2 -30 4 -13 2 -25 -11 -43 -47z"/>
<path d="M1336 5734 c-72 -25 -119 -74 -132 -137 -3 -12 -7 -134 -10 -272 -6
-268 -7 -294 -19 -425 -8 -89 -12 -122 -15 -130 -1 -3 -2 -9 -1 -13 1 -5 -8
-57 -19 -117 -21 -111 -43 -186 -76 -255 -19 -39 -19 -84 -18 -1460 1 -781 4
-1427 6 -1435 9 -34 39 -78 62 -94 24 -15 224 -16 2790 -16 1584 0 2775 4
2788 9 13 5 31 17 40 28 48 53 46 -5 46 1508 1 1365 0 1422 -18 1460 -16 34
-28 64 -35 85 -1 3 -5 23 -10 45 -5 22 -10 42 -10 45 -1 3 -5 16 -8 30 -8 31
-22 122 -31 200 -3 19 -5 35 -6 35 -1 0 -4 44 -15 205 -5 62 -11 271 -16 480
-2 96 -16 142 -58 180 -32 30 -96 53 -161 57 l-65 5 40 -28 c49 -34 69 -57 96
-108 53 -100 55 -117 64 -541 9 -415 20 -539 61 -695 8 -31 12 -330 5 -331 -3
0 -315 -1 -694 -2 -750 -2 -701 -6 -673 56 16 37 28 68 32 82 4 17 187 446
264 620 78 175 89 204 82 209 -16 9 -233 2 -240 -8 -5 -6 -21 -42 -37 -81 -15
-38 -34 -83 -41 -100 -7 -16 -22 -52 -33 -80 -10 -27 -26 -63 -35 -80 -9 -16
-16 -35 -16 -41 0 -6 -6 -24 -14 -40 -26 -54 -136 -322 -136 -333 0 -6 -4 -11
-10 -11 -5 0 -9 -3 -8 -7 1 -9 -7 -32 -30 -83 -9 -19 -17 -44 -19 -55 -6 -31
-26 -46 -69 -46 -69 -2 -76 0 -70 19 3 9 8 37 11 62 3 25 7 56 9 70 3 14 7 52
11 85 4 32 8 62 10 65 2 3 6 38 9 78 4 53 2 72 -7 73 -29 3 -150 21 -294 43
-82 13 -83 13 -85 -8 -1 -20 -3 -35 -7 -46 -1 -3 -4 -25 -6 -50 -2 -25 -7 -61
-10 -80 -7 -37 -9 -50 -19 -140 -3 -30 -8 -68 -11 -85 -3 -16 -7 -43 -10 -60
l-5 -30 -202 2 c-112 0 -208 2 -213 2 -6 1 -17 18 -24 39 -7 20 -19 51 -26 67
-13 28 -57 133 -210 500 -37 88 -73 174 -80 190 -8 17 -43 102 -80 190 -36 88
-72 174 -79 190 -8 17 -26 59 -41 95 -15 36 -36 84 -46 107 -11 23 -19 44 -19
47 0 10 -60 136 -65 136 -8 0 -115 -53 -180 -90 -63 -35 -134 -83 -197 -132
-37 -29 -37 -29 -23 -67 7 -21 18 -47 23 -57 6 -11 27 -59 48 -109 36 -89 51
-124 78 -187 19 -44 90 -213 133 -318 37 -91 54 -131 77 -182 8 -18 31 -73 52
-123 20 -49 46 -112 58 -140 12 -27 29 -66 36 -85 7 -19 18 -41 23 -48 5 -7 7
-15 4 -19 -7 -6 -2263 -11 -2284 -5 -19 6 -17 281 3 349 8 29 17 68 20 86 2
17 6 43 8 57 16 85 26 278 30 615 5 321 8 344 52 441 22 49 64 98 116 136 23
18 23 18 -28 16 -27 -1 -67 -7 -88 -14z"/>
<path d="M654 5576 c-40 -18 -72 -52 -91 -95 -14 -33 -19 -165 -9 -218 8 -38
36 -78 74 -103 34 -24 42 -25 242 -28 194 -3 208 -2 212 15 2 10 6 114 7 231
l3 212 -204 0 c-148 -1 -211 -4 -234 -14z"/>
<path d="M1449 5576 c-102 -53 -130 -195 -81 -415 l7 -34 789 1 c434 1 790 3
792 5 3 3 -44 120 -99 248 -9 19 -31 49 -49 65 -19 16 -52 55 -74 86 l-39 58
-154 0 -154 0 -52 -53 c-46 -47 -81 -72 -182 -134 -21 -12 -24 -11 -38 16
l-15 30 -57 -25 c-98 -43 -147 -65 -165 -75 -10 -5 -20 -9 -23 -9 -4 0 -33 56
-66 125 l-60 125 -127 0 c-88 0 -135 -4 -153 -14z"/>
<path d="M3556 5553 c9 -21 18 -45 21 -53 3 -8 14 -35 25 -59 10 -24 28 -66
39 -94 11 -28 28 -69 38 -91 9 -23 26 -60 36 -83 l18 -43 66 -1 c226 -3 864 2
871 6 5 3 8 13 8 23 0 15 9 86 17 132 1 8 6 35 10 60 3 25 8 57 11 71 2 15 6
47 9 70 3 24 8 56 11 72 l6 27 -601 0 -601 0 16 -37z"/>
<path d="M5026 5573 c-3 -10 -8 -40 -11 -68 -3 -27 -7 -61 -10 -75 -12 -61
-14 -78 -20 -125 -3 -27 -8 -57 -10 -65 -2 -8 -6 -36 -10 -62 -5 -41 -3 -48
12 -48 26 -1 1339 -1 1400 -1 56 1 56 1 70 76 20 106 1 315 -29 315 -4 0 -8 6
-8 13 0 7 -17 23 -39 35 -39 22 -39 22 -689 22 -611 0 -651 -1 -656 -17z"/>
<path d="M6775 5388 c1 -112 3 -216 4 -231 l1 -28 204 1 c112 1 207 5 211 8 4
4 10 7 15 7 15 0 69 54 85 86 12 23 17 59 17 130 1 88 -2 102 -26 142 -17 31
-39 52 -69 66 -40 19 -61 21 -244 21 l-200 0 2 -202z"/>
<path d="M1586 5043 c2 -16 5 -62 8 -103 3 -41 8 -100 10 -130 3 -30 7 -87 10
-126 l5 -71 -72 -40 c-40 -23 -97 -54 -127 -71 -40 -21 -61 -40 -75 -69 -29
-57 -29 -56 -33 -211 l-4 -144 24 8 c13 4 478 9 1033 10 556 1 1013 2 1016 3
4 0 -10 39 -30 86 l-36 85 -800 1 c-440 0 -793 3 -785 6 8 4 19 11 25 17 10
11 11 75 1 101 -3 8 -2 15 2 15 7 0 6 156 -1 191 -1 10 -8 23 -13 30 -33 43
-67 197 -75 334 -3 52 -13 72 -49 90 -38 20 -38 20 -34 -12z"/>
<path d="M6175 5047 c-16 -12 -31 -27 -31 -32 -2 -9 -11 -102 -19 -180 -5 -54
-36 -159 -57 -195 -18 -31 -21 -52 -21 -188 0 -139 1 -154 19 -167 17 -13 -20
-14 -307 -15 l-326 0 -11 -22 c-18 -36 -52 -128 -52 -141 0 -9 124 -12 543
-12 298 0 552 -4 563 -8 22 -8 22 -7 22 129 0 75 -3 146 -8 158 -4 11 -8 24
-9 28 -6 36 -45 76 -101 106 -36 19 -92 50 -125 68 l-60 33 2 68 c0 37 4 95 6
128 3 33 9 100 12 150 4 49 7 93 8 98 4 18 -19 15 -48 -6z"/>
<path d="M4513 4719 c-57 -21 -51 -103 8 -114 13 -3 35 -7 49 -10 14 -2 48 -7
75 -10 28 -4 57 -8 65 -10 8 -2 38 -7 65 -11 28 -3 59 -8 70 -10 49 -10 110
-15 130 -10 29 7 47 49 35 80 -9 24 -52 40 -140 51 -45 5 -108 15 -140 20 -14
3 -47 7 -75 11 -27 3 -66 9 -85 13 -20 4 -45 4 -57 0z"/>
<path d="M4090 4260 c0 -5 14 -39 30 -75 17 -36 30 -70 30 -75 0 -6 6 -10 13
-11 40 -2 222 3 225 6 4 3 7 22 18 113 l6 52 -161 0 c-98 0 -161 -4 -161 -10z"/>
</g>
</svg>
