<?xml version="1.0" encoding="UTF-8"?>
<svg width="96px" height="61px" viewBox="0 0 96 61" version="1.1" xmlns="http://www.w3.org/2000/svg" xmlns:xlink="http://www.w3.org/1999/xlink">
    <!-- Generator: Sketch 58 (84663) - https://sketch.com -->
    <title>Group 14</title>
    <desc>Created with Sketch.</desc>
    <g id="Page-1" stroke="none" stroke-width="1" fill="none" fill-rule="evenodd">
        <g id="TOOLCARD_mobile" transform="translate(-209.000000, -451.000000)" fill="#3C3C3C">
            <g id="Group-14" transform="translate(209.000000, 451.000000)">
                <path d="M93.4148614,3 L88,3 C88.0317175,3.23845822 88.0487207,3.49043578 88.0434889,3.76024738 C88.0356413,5.7717532 88.0810921,7.50596865 88.1615303,9 L93.4148614,9 C94.8424753,9 96,7.9817345 96,6.72587372 L96,5.27412628 C96,4.0182655 94.8424753,3 93.4148614,3" id="Fill-1"></path>
                <path d="M2.58513856,3 L8,3 C7.96828251,3.23845822 7.95127933,3.49043578 7.95651108,3.76024738 C7.9643587,5.7717532 7.91890787,7.50596865 7.83846971,9 L2.58513856,9 C1.15752473,9 0,7.9817345 0,6.72587372 L0,5.27412628 C0,4.0182655 1.15752473,3 2.58513856,3" id="Fill-4"></path>
                <path d="M83.3564616,18.5520517 L79.6572847,16.5446839 L80.1718038,10 L79.0190442,10.7409955 C79.0190442,10.7409955 78.7765877,15.7027141 77.650006,16.5446839 L77.650006,20.9785402 L78.3346809,21.3060074 L16.6653191,21.3060074 L17.3496824,20.9785402 L17.3496824,16.5446839 C16.2234123,15.7027141 15.9809558,10.7409955 15.9809558,10.7409955 L14.8281962,10 L15.3424036,16.5446839 L11.6435384,18.5520517 L11,20.2450012 L11,24 L11.7376539,23.7231753 L83.2623461,23.7231753 L84,24 L84,20.2450012 L83.3564616,18.5520517 Z" id="Fill-7"></path>
                <path d="M80.9241789,3 L64.8274452,3 L57.2412198,3 L13.0757016,3 C13.0757016,3 9.83666012,3.14871279 11.4508832,9 L57.2412198,9 L64.8274452,9 L82.5489973,9 C84.163532,3.14871279 80.9241789,3 80.9241789,3" id="Fill-9"></path>
                <path d="M85.8842186,3.01164691 C85.9455637,-0.519415894 81.796629,0.0311045397 81.796629,0.0311045397 C81.796629,0.0311045397 82.8025642,0.362963205 83.5687525,1.52926239 C84.3346278,2.69556158 84.6160017,3.72206569 84.6175666,6.54301899 C84.6191315,9.36397229 84.6113069,17.0276497 85.6735794,19.5025174 L85.6961143,23.7709065 L47.9697911,23.7709065 L47.0302089,23.7709065 L9.30388566,23.7709065 L9.33048942,19.5711778 C10.3927619,17.0963101 10.3808685,9.36397229 10.3824334,6.54301899 C10.3839983,3.72206569 10.6653722,2.69556158 11.4312475,1.52926239 C12.1971229,0.362963205 13.203058,0.0311045397 13.203058,0.0311045397 C13.203058,0.0311045397 9.05412329,-0.519415894 9.11578142,3.01164691 C9.16523312,17.3759003 7,19.4941668 7,19.4941668 L7,58.3101873 C7,61.4642364 9.30388566,60.9721701 9.30388566,60.9721701 L47.0302089,60.9721701 L47.9697911,60.9721701 L85.6961143,60.9721701 C85.6961143,60.9721701 88,61.4642364 88,58.3101873 L88,19.4941668 C88,19.4941668 85.8344539,17.3759003 85.8842186,3.01164691" id="Fill-11"></path>
            </g>
        </g>
    </g>
</svg>